<svg xmlns="http://www.w3.org/2000/svg" width="167.151" height="50" viewBox="0 0 167.151 50"><g transform="translate(-278 -10)"><g transform="translate(277.964 10.002)"><g transform="translate(0.036 -0.002)"><path d="M29.068,50a25.386,25.386,0,0,1-17.8-7.244l-.139-.131a.136.136,0,0,1,0-.222l.133-.137q2.043-2.022,4.073-4.057l.139-.131c.066-.079.139-.1.219,0l.219.216A18.663,18.663,0,0,0,25.771,43.3,18.857,18.857,0,0,0,47.1,30.367a17.976,17.976,0,0,0,.743-6.864A18.66,18.66,0,0,0,33.519,6.935a19.485,19.485,0,0,0-3.589-.51c-.179,0-.245-.046-.245-.236,0-1.963-.033-3.926-.046-5.935,0-.255,0-.262.292-.255.9.039,1.784.1,2.653.229a24.426,24.426,0,0,1,7.728,2.388A24.924,24.924,0,0,1,53.824,19.63a23.116,23.116,0,0,1,.537,6.982A25.34,25.34,0,0,1,29.068,50Z" transform="translate(-3.752 0.002)" fill="#27ab83"/><path d="M6.241,45.664A25.207,25.207,0,0,1,7.528,11.17c.119,0,.179.126.252.206q2.05,2.07,4.086,4.146c.279.285.226.245,0,.471a18.68,18.68,0,0,0-4.849,8.816,17.181,17.181,0,0,0-.444,2.905A18.673,18.673,0,0,0,10.626,40.8c.04.046.08.1.126.146a.153.153,0,0,1,0,.259l-.08.08L6.42,45.552C6.367,45.591,6.321,45.658,6.241,45.664Z" transform="translate(-0.036 -3.759)" fill="#2680c2"/><path d="M28.827,3.317V6.156c0,.332,0,.338-.312.358A18.945,18.945,0,0,0,17.9,10.673c-.305.252-.226.272-.537-.04L13.3,6.521c-.272-.285-.265-.245,0-.484A25.294,25.294,0,0,1,23.5.73,26.421,26.421,0,0,1,28.535,0c.292,0,.292,0,.3.292V3.317Z" transform="translate(-4.433 0.001)" fill="#ba2525"/><path d="M21.962,31.581c-.279.736-.577,1.466-.915,2.182a.624.624,0,0,1-1.148,0c-.285-.663-.57-1.327-.862-1.99-.046-.106-.06-.245-.186-.332,0,1.008.053,1.99.073,2.992v1.532c0,.511-.119.531-.531.531H16.814c-.411,0-.524-.119-.524-.524V27.614c0-.411.113-.524.517-.524h1.612c.584,0,.663.046.836.584l1.008,2.965a1.91,1.91,0,0,0,.219.537.836.836,0,0,0,.166-.358c.332-.988.663-1.99,1-2.972.053-.153.106-.312.172-.464a.431.431,0,0,1,.418-.285h1.877c.279,0,.378.126.4.4v8.272c0,.663-.06.663-.71.663h-1.26c-.464,0-.59-.119-.584-.6,0-1.095,0-2.2.053-3.317v-.61a1.871,1.871,0,0,0,0-.577c0-.053-.046,0,0,0h0A.252.252,0,0,1,21.962,31.581Z" transform="translate(-5.508 -9.418)" fill="#313131"/><path d="M33.036,36.471h-2.3a2.343,2.343,0,0,1-.305,0,.332.332,0,0,1-.325-.358,2.182,2.182,0,0,1,.292-1.327c.544-.9,1.041-1.818,1.579-2.713a.61.61,0,0,0,0-.7c-.478-.829-.909-1.685-1.386-2.514a2.408,2.408,0,0,1-.272-1.4c0-.232.1-.312.338-.338a2.3,2.3,0,0,1,.305,0H35.6c.259,0,.352.106.365.352s0,.537,0,.809a.3.3,0,0,1-.3.325H33.6c-.551,0-.577.153-.332.551.378.663.723,1.327,1.1,1.924a1,1,0,0,1,0,1.108c-.358.743-.71,1.486-1.095,2.216a1.325,1.325,0,0,0-.119.239c-.073.179,0,.272.166.3a1.769,1.769,0,0,0,.265,0h1.877c.418,0,.484.08.491.5V36.1c0,.232-.086.325-.318.358a1.546,1.546,0,0,1-.305,0Z" transform="translate(-10.155 -9.425)" fill="#313131"/><path d="M51.88,31.7V27.557c0-.431.119-.531.557-.537h1.38c.471,0,.584.119.584.6v6.242c0,.544-.093.491.484.491H56.8a1.77,1.77,0,0,1,.265,0c.232,0,.312.093.3.312a13.17,13.17,0,0,1-.139,1.446.352.352,0,0,1-.338.312,2.348,2.348,0,0,1-.305,0h-4.06a1.771,1.771,0,0,1-.265,0,.358.358,0,0,1-.365-.371,2.4,2.4,0,0,1,0-.378Z" transform="translate(-17.972 -9.394)" fill="#313131"/><path d="M92.565,25.079a.922.922,0,0,0-.226.391c-.4.882-.8,1.765-1.194,2.653a.491.491,0,0,1-.61.332c-.206-.033-.285-.186-.358-.352l-1.234-2.653a1,1,0,0,0-.226-.325v5.532a.272.272,0,0,1-.252.252h0c-.935,0-.9.066-.9-.763V23.594c0-.59,0-.617.6-.61.968,0,.783-.133,1.2.769s.836,1.8,1.254,2.713l.093.159.352-.776c.371-.823.756-1.645,1.114-2.474a.544.544,0,0,1,.61-.4h.663c.232,0,.312.086.345.325v7.1c0,.425-.066.478-.5.484-.663,0-.663,0-.663-.663V25.245C92.578,25.2,92.572,25.166,92.565,25.079Z" transform="translate(-30.323 -7.977)" fill="#313131"/><path d="M231.723,45.857a5.813,5.813,0,0,1-.073.8,1.99,1.99,0,0,1-1.672,1.592c-.106,0-.166,0-.212-.093l-.06-.146c-.066-.186-.252-.365-.192-.557s.325-.139.5-.212a.955.955,0,0,0,.663-.73,2.368,2.368,0,0,0,.046-.57c0-1.327,0-2.607,0-3.907V41.8c0-.206.093-.265.279-.265.842,0,.71-.08.716.663s.04,1.406,0,2.109a.909.909,0,0,0,.849.9h4.106c.312,0,.312,0,.4-.285a2.329,2.329,0,0,0,.119-1.128,1.048,1.048,0,0,0-.75-.882,2.209,2.209,0,0,0-.723-.093h-2.143a.385.385,0,0,1-.438-.265c-.245-.577-.259-.57.159-1.035.71-.783,1.426-1.566,2.129-2.362a.537.537,0,0,1,.5-.212h.5c.166,0,.219,0,.279.086s-.053.179-.119.252c-.226.245-.458.484-.663.723-.5.531-1,1.055-1.506,1.585a.57.57,0,0,0-.212.305h1.367a5.75,5.75,0,0,1,1.068.08,1.99,1.99,0,0,1,1.619,2.255,5.239,5.239,0,0,1-.511,1.718.272.272,0,0,1-.292.179h-4.829A1.851,1.851,0,0,1,231.723,45.857Z" transform="translate(-79.586 -13.535)" fill="#313131"/><path d="M183.43,26.927V23.385c0-.338.073-.4.411-.4h3.37c.325,0,.365.046.431.365v.113c.066.464,0,.551-.464.557h-2.3c-.272,0-.279,0-.279.272v1.685c0,.212.073.259.265.259h1.758c.425,0,.491.073.5.484v.119c0,.431-.046.478-.484.484h-1.725c-.3,0-.305,0-.305.285V29.56c0,.265,0,.272.272.272h2.335a2.35,2.35,0,0,1,.305,0,.265.265,0,0,1,.245.292.66.66,0,0,1,0,.113c-.046.61-.106.663-.71.663h-2.985c-.663,0-.663,0-.663-.663Z" transform="translate(-63.464 -7.98)" fill="#313131"/><path d="M108.17,29.134V26.945c0-.478.046-.551.484-.7a4.763,4.763,0,0,1,2.262-.206,1.526,1.526,0,0,1,1.439,1.638v3.788c0,.365-.066.425-.425.438h-.418c-.259,0-.338-.093-.358-.352v-3.41a4.163,4.163,0,0,0,0-.5.557.557,0,0,0-.551-.577,3.317,3.317,0,0,0-1,.033c-.172,0-.226.106-.226.279v4.06c0,.4-.06.458-.471.464H108.6c-.345,0-.418-.08-.425-.438s0-.61,0-.922Z" transform="translate(-37.438 -9.013)" fill="#313131"/><path d="M248.46,29.147V26.885c0-.411.046-.478.431-.617a4.644,4.644,0,0,1,2.3-.226,1.532,1.532,0,0,1,1.459,1.658v3.755c0,.385-.06.444-.444.451H251.9c-.371,0-.451-.08-.451-.451V27.814c0-.564-.212-.75-.776-.763a5.267,5.267,0,0,0-.663.033c-.352.046-.352.06-.352.4V31.3c0,.63,0,.63-.663.63h-.033c-.471,0-.517-.053-.517-.537v-.5Z" transform="translate(-85.962 -9.013)" fill="#313131"/><path d="M146.19,29.14V26.878c0-.4.053-.478.438-.61a4.643,4.643,0,0,1,2.3-.226,1.519,1.519,0,0,1,1.453,1.625v3.794c0,.385-.06.438-.451.444h-.305c-.371,0-.444-.08-.444-.458V28.132a4.725,4.725,0,0,0,0-.531.564.564,0,0,0-.544-.551,1.99,1.99,0,0,0-.345,0c-.876,0-.876,0-.876.862v3.655c0,.272-.086.338-.345.352a3.2,3.2,0,0,1-.5,0c-.252,0-.338-.086-.352-.345s0-.484,0-.73Z" transform="translate(-50.588 -9.013)" fill="#313131"/><path d="M216.379,28.979v2.262c0,.378-.046.451-.418.577a4.75,4.75,0,0,1-2.415.212,1.473,1.473,0,0,1-1.327-1.42,4.633,4.633,0,0,1-.04-.61V26.784c0-.484.053-.544.544-.584.663-.053.663-.046.663.624v3.217c0,.823.206,1.055,1.1.988s.663,0,.663-.743V26.837a2.357,2.357,0,0,1,0-.305c0-.265.1-.338.365-.318.9.066.836.046.829.842Z" transform="translate(-73.755 -9.079)" fill="#313131"/><path d="M193.142,30.29c.113-.053.1-.153.126-.232l.955-3.383c.146-.524.159-.531.663-.484h.073c.458.046.544.166.418.59l-1.453,4.8c-.106.345-.153.378-.517.385h-.458c-.4,0-.451,0-.57-.418-.206-.663-.4-1.327-.61-1.99-.272-.889-.537-1.778-.8-2.653a1.58,1.58,0,0,1-.073-.252c-.04-.232,0-.345.252-.391a2.924,2.924,0,0,1,.451-.046c.325,0,.4,0,.5.338.172.57.332,1.148.491,1.725Z" transform="translate(-66.05 -9.076)" fill="#313131"/><path d="M231.128,30.145h.5a.226.226,0,0,1,.239.245,1.839,1.839,0,0,1,0,.192c0,.544-.113.663-.663.663a4.889,4.889,0,0,1-.763,0,1.267,1.267,0,0,1-1.254-1.353V26.6c0-.279,0-.3-.265-.285-.663.04-.584-.139-.57-.663,0-.226.08-.279.312-.3s.372.066.478-.053.04-.365.046-.551,0-.385,0-.577a.305.305,0,0,1,.285-.338c.166,0,.332-.046.5-.06.3,0,.391.06.4.365s0,.663,0,.955c0,.206.073.272.272.259s.537,0,.8,0,.305.053.352.305c.1.617.073.663-.557.663h-.5c-.358,0-.358,0-.358.345v2.952c0,.438.093.5.524.517Z" transform="translate(-79.197 -8.252)" fill="#313131"/><path d="M121.107,28.182V26.577c0-.179-.046-.272-.239-.245h-.073c-.172,0-.385.066-.484-.133a.975.975,0,0,1,0-.663c0-.146.159-.172.292-.186s.371.073.478-.046.04-.345.046-.517,0-.411,0-.61a.305.305,0,0,1,.292-.338l.418-.053c.365-.046.464.033.478.4v.769c0,.4,0,.4.385.4h.663c.259,0,.3.053.345.305.1.624.073.663-.564.663h-.577c-.272,0-.279,0-.279.279v3.1c0,.352.093.418.451.438h.61c.385,0,.438.04.418.438a.663.663,0,0,1,0,.113c0,.4-.126.5-.544.537a5.4,5.4,0,0,1-.8,0,1.327,1.327,0,0,1-1.327-1.386V28.182Z" transform="translate(-41.612 -8.252)" fill="#313131"/><path d="M207.48,26.185v-3.1c0-.471.053-.517.517-.564.663-.066.663-.046.663.6v5.824a2.034,2.034,0,0,0,.033.491.3.3,0,0,0,.312.279h.458c.093,0,.192,0,.232.106a1.187,1.187,0,0,1,0,.743c-.06.206-.252.239-.438.239a5.435,5.435,0,0,1-.57,0,1.194,1.194,0,0,1-1.161-1.121,5.308,5.308,0,0,1,0-.723C207.48,28.023,207.48,27.107,207.48,26.185Z" transform="translate(-72.172 -7.813)" fill="#313131"/><path d="M135.993,29.548a19.116,19.116,0,0,1,.04-2.222,1.327,1.327,0,0,1,1.221-1.287,3.191,3.191,0,0,1,1.254,0,.391.391,0,0,1,.371.411,2.939,2.939,0,0,1,0,.418c0,.245-.1.332-.338.292a3.729,3.729,0,0,0-.61-.053c-.6,0-.75.126-.75.73V31.5c0,.292-.08.358-.358.378h-.385c-.378,0-.451-.073-.458-.444V29.833Z" transform="translate(-47.047 -9.008)" fill="#313131"/><path d="M34.979,44.321c.073.126,0,.265.119.4.08-.073.159-.146.245-.212a1.214,1.214,0,0,1,1.99.663,2.03,2.03,0,0,1,.06.491v1.758c0,.325,0,.325-.345.325h-.418c-.3,0-.3,0-.305-.285V45.973a2.136,2.136,0,0,0-.04-.458.5.5,0,0,0-.438-.418.537.537,0,0,0-.544.285.842.842,0,0,0-.106.478v1.605c0,.285,0,.285-.305.285a3.6,3.6,0,0,1-.378,0c-.378,0-.385,0-.385-.365V44.48c0-.153.053-.186.186-.179a5.049,5.049,0,0,1,.663.02Z" transform="translate(-11.514 -15.308)" fill="#bf2d2c"/><path d="M132.728,42.575v3.177c0,.385,0,.385-.378.385-.663,0-.61.073-.61-.617V39.2a.209.209,0,0,1,.232-.239h.04c.889,0,.71-.046.716.663C132.735,40.6,132.728,41.587,132.728,42.575Z" transform="translate(-45.567 -13.523)" fill="#323232"/><path d="M236.6,29.059v2.415c0,.425-.066.478-.491.484h-.425a.285.285,0,0,1-.292-.292V26.71a1.173,1.173,0,0,1,0-.153c0-.245.1-.332.352-.371a2.993,2.993,0,0,1,.458-.046c.259,0,.378.073.391.345s0,.458,0,.663Z" transform="translate(-81.567 -9.065)" fill="#323232"/><path d="M118.134,29.081v2.255c0,.663,0,.663-.663.663h-.113c-.371,0-.438-.073-.438-.458V26.673c0-.4.08-.4.4-.438l.338-.04c.352-.04.458.053.464.418s0,.663,0,1Z" transform="translate(-40.445 -9.081)" fill="#323232"/><path d="M141.9,29.075V26.72c0-.391.066-.458.458-.5.126,0,.252-.04.378-.046a.3.3,0,0,1,.365.305,1.758,1.758,0,0,1,0,.265v4.869c0,.259-.1.325-.365.345h-.305c-.491,0-.531-.04-.531-.517Z" transform="translate(-49.081 -9.074)" fill="#323232"/><path d="M42.088,44.3v.186c0,.126-.04.2-.172.192h-.08c-.5,0-.5,0-.5.551v.8c0,.391.1.478.484.478.186,0,.232.06.239.239,0,.6-.033.663-.663.663a1.008,1.008,0,0,1-1.128-1.035V45c0-.279,0-.292-.279-.312-.153,0-.192-.08-.186-.219s0-.179,0-.265c0-.265,0-.272.285-.305.133,0,.186-.06.179-.186v-.073c0-.172-.086-.391.066-.511A1.326,1.326,0,0,1,40.8,43c.517-.126.517-.126.517.418s-.04.451.411.451S42.088,43.864,42.088,44.3Z" transform="translate(-13.422 -14.874)" fill="#bf2e2c"/><path d="M26.219,46.92a.794.794,0,0,0,.04.159c.113.663.206.6-.517.736a1.989,1.989,0,0,1-.663,0A1.645,1.645,0,0,1,23.6,46.137a1.745,1.745,0,0,1,1.433-1.818,2.753,2.753,0,0,1,1.141,0c.159,0,.219.113.166.265s0,.126-.033.192c-.08.352-.08.352-.451.312-.736-.08-1.194.325-1.148,1.022a.889.889,0,0,0,.962.876A4.575,4.575,0,0,0,26.219,46.92Z" transform="translate(-7.968 -15.328)" fill="#bf2d2c"/><path d="M139.3,42.912a7.748,7.748,0,0,0-1.7-.172,2.308,2.308,0,0,0-2.216,2.408,2.209,2.209,0,0,0,2.275,2.275c.285,0,.458-.066.531-.352s.239-.345.119-.564h-.663a1.187,1.187,0,0,1-1.187-.942,1.639,1.639,0,0,1,.119-1.227,1.168,1.168,0,0,1,1.068-.663,1.6,1.6,0,0,1,.75.08c.153.066.08.2.08.3v3.177a1.128,1.128,0,0,1-.955,1.28c-.159.046-.325.08-.484.119s-.179.08-.139.219c.172.663.325.783,1,.57a2.892,2.892,0,0,0,.4-.153,1.857,1.857,0,0,0,1.154-1.506,3.5,3.5,0,0,0,0-.531V43.111a.172.172,0,0,0-.139-.2Z" transform="translate(-46.847 -14.831)" fill="#313131"/><path d="M50.6,44.842a3.371,3.371,0,0,1,.312-.378,1.147,1.147,0,0,1,.371-.186c.385-.1.451-.046.451.338a1.172,1.172,0,0,1,0,.153.929.929,0,0,1,0,.411c-.08.139-.259.033-.391.06a.663.663,0,0,0-.617.7V47.27c0,.61.08.511-.531.517s-.537,0-.537-.551V44.583c0-.2.046-.279.252-.259a2.263,2.263,0,0,1,.564,0C50.627,44.4,50.441,44.689,50.6,44.842Z" transform="translate(-17.193 -15.318)" fill="#bf2e2c"/><path d="M236.627,23.643c0,.663,0,.663-.663.663-.584,0-.6,0-.6-.6v-.458a.3.3,0,0,1,.312-.312h.57c.305,0,.378.086.4.385C236.634,23.457,236.627,23.563,236.627,23.643Z" transform="translate(-81.558 -7.933)" fill="#323232"/><path d="M143.123,23.686c0,.663,0,.663-.663.663s-.63,0-.63-.663,0-.716.716-.716h.153c.332,0,.4.08.418.4A2.623,2.623,0,0,1,143.123,23.686Z" transform="translate(-49.058 -7.944)" fill="#323232"/><path d="M118.167,23.706c0,.663,0,.663-.663.663s-.624,0-.624-.617V23.3a.285.285,0,0,1,.3-.285h.6a.348.348,0,0,1,.378.371A2.6,2.6,0,0,1,118.167,23.706Z" transform="translate(-40.432 -7.958)" fill="#323232"/><path d="M115.439,40.641c0-.524-.053-.531.551-.531s.511.053.511.524c0,.663.073.6-.617.6h-.153c-.259,0-.279-.033-.292-.292Z" transform="translate(-39.932 -13.871)" fill="#353434"/><path d="M174.609,40.7c0,.624,0,.557-.557.557s-.511,0-.5-.491c0-.663-.106-.663.63-.663h.113c.279,0,.312.04.318.305C174.615,40.5,174.609,40.591,174.609,40.7Z" transform="translate(-60.019 -13.868)" fill="#353434"/><path d="M149.66,40.707c0,.663,0,.57-.577.57h-.212c-.172,0-.259-.066-.252-.245s0-.431,0-.663a.206.206,0,0,1,.232-.232h.265C149.72,40.11,149.667,40.123,149.66,40.707Z" transform="translate(-51.402 -13.878)" fill="#353434"/><path d="M121.8,40.647c0,.663,0,.59-.564.59s-.5,0-.5-.531-.106-.6.557-.6C121.8,40.116,121.8,40.11,121.8,40.647Z" transform="translate(-41.762 -13.871)" fill="#353434"/><path d="M152.219,40.694c0,.6.04.551-.557.551s-.5,0-.5-.491c0-.663-.066-.663.663-.663h.153c.186,0,.285.073.272.272A1.1,1.1,0,0,0,152.219,40.694Z" transform="translate(-52.279 -13.864)" fill="#353534"/><path d="M177.179,40.7c0,.6.046.557-.551.557s-.511,0-.511-.491c0-.663-.066-.663.663-.663h.153c.186,0,.285.066.272.272A1.045,1.045,0,0,0,177.179,40.7Z" transform="translate(-60.908 -13.868)" fill="#353534"/><path d="M112.853,40.713c0-.551-.093-.57.557-.564.5,0,.5,0,.5.5,0,.73.04.624-.663.663H113.1c-.192,0-.292-.06-.279-.259S112.853,40.786,112.853,40.713Z" transform="translate(-39.027 -13.885)" fill="#353534"/><path d="M124.37,40.694c0,.6.046.551-.557.551-.5,0-.5,0-.5-.491,0-.663-.073-.663.663-.663h.153c.186,0,.285.073.272.272A1.1,1.1,0,0,0,124.37,40.694Z" transform="translate(-42.653 -13.864)" fill="#353534"/><path d="M215.685,51.584c0,.663.066.557-.584.557-.471,0-.471,0-.471-.478,0-.723,0-.61.6-.624h.08c.365,0,.365,0,.371.352Z" transform="translate(-74.58 -17.651)" fill="#343333"/><path d="M232.325,40.71c0,.617.04.551-.557.551h-.192c-.259,0-.285-.033-.3-.279s0-.411,0-.617.06-.226.2-.226h.663c.146,0,.2.093.2.226Z" transform="translate(-80.182 -13.881)" fill="#343333"/><path d="M100.749,51.6c0-.6-.06-.557.551-.557s.511,0,.511.531.053.57-.577.577h-.113c-.365,0-.365,0-.371-.358Z" transform="translate(-34.853 -17.651)" fill="#333"/><path d="M105.87,51.591c0,.6.06.557-.557.557-.5,0-.511,0-.5-.491,0-.663-.08-.61.61-.617h.119c.312,0,.318,0,.332.318Z" transform="translate(-36.256 -17.651)" fill="#333"/><path d="M108.465,51.61c0,.584.066.537-.531.531s-.524.086-.517-.511,0-.584.6-.59c.464,0,.458,0,.451.458Z" transform="translate(-37.157 -17.651)" fill="#343333"/><path d="M213.11,51.591c0,.6.066.557-.557.557-.5,0-.5,0-.5-.491,0-.663-.08-.61.617-.617h.113c.318,0,.325,0,.332.318Z" transform="translate(-73.71 -17.651)" fill="#333"/><path d="M99.221,51.586c0,.617.04.544-.557.544H98.4c-.166,0-.226-.08-.219-.232s0-.431,0-.663.073-.232.232-.226h.57c.186,0,.252.086.239.259Z" transform="translate(-33.965 -17.64)" fill="#313131"/><path d="M166.138,51.6c0,.624,0,.544-.557.544h-.153c-.332,0-.332,0-.338-.345v-.531c0-.179.073-.232.232-.226h.265C166.165,51.046,166.145,50.967,166.138,51.6Z" transform="translate(-57.097 -17.651)" fill="#313131"/><path d="M24.84,33.742a.3.3,0,0,1,.119-.232,1.068,1.068,0,0,1-.04.61C24.853,34,24.946,33.835,24.84,33.742Z" transform="translate(-8.386 -11.585)" fill="#a09c9c"/><path d="M12.327,9.043a.146.146,0,0,1,.126-.113h0s-.066.1-.133.1Z" transform="translate(-4.172 -3.005)" fill="#d3b6ac"/><path d="M12.326,9.113l-.046.033.033-.046Z" transform="translate(-4.158 -3.062)" fill="#d3b6ac"/><path d="M114.434,39h-.073a.206.206,0,0,0-.226.245v5.824c0,.119,0,.192-.166.192h-1.493a1.373,1.373,0,0,1-.842-.325.312.312,0,0,1-.153-.285c.106-.9,0-1.791.046-2.653v-.113c0-.252-.033-.279-.292-.292h-.119c-.663,0-.584,0-.584.57v2.07A1.015,1.015,0,0,1,109.6,45.3h-1.327a1.068,1.068,0,0,1-.7-.279.318.318,0,0,1-.113-.338,16.512,16.512,0,0,0,.1-2.746c0-.119,0-.2-.166-.219a6.149,6.149,0,0,0-1.937-.153,2.269,2.269,0,0,0-1.625,3.6c0,.04.066.08,0,.139H102.3a1.572,1.572,0,0,1-.962-.312c-.1-.08-.212-.159-.186-.312a15.963,15.963,0,0,0,.053-1.95v-.842c0-.279,0-.279-.285-.292H100.8c-.663,0-.584,0-.584.57v2.07a1,1,0,0,1-.935,1.061,14,14,0,0,1-1.493,0,1.406,1.406,0,0,1-.882-.325.371.371,0,0,1-.139-.332c.066-.8,0-1.612,0-2.415v-.385c0-.153-.06-.239-.226-.239a1.738,1.738,0,0,1-.186,0c-.61,0-.577-.053-.577.584v2.109a.988.988,0,0,1-1.055,1.022H93.81a1.758,1.758,0,0,1-.61-.08c-.425-.146-.511-.292-.4-.716a2.308,2.308,0,0,0-1.8-2.925,5.97,5.97,0,0,0-2.163.119c-.093,0-.119.08-.126.166v3.257c0,.133,0,.265-.153.345a1.453,1.453,0,0,0-.842,1.393c0,.279,0,.557,0,.842,0,.7-.113.663.663.663.292,0,.318,0,.325-.338s0-.716,0-1.075a.716.716,0,0,1,.776-.723h1.075a2.182,2.182,0,0,0,1.585-.61c.126-.113.2-.093.312,0a1.765,1.765,0,0,0,1.174.5h1.068a1.99,1.99,0,0,0,1.731-.663,1.864,1.864,0,0,0,1.327.663h1.837a1.373,1.373,0,0,0,.75-.265c.166-.113.318-.252.484-.385a2.083,2.083,0,0,0,1.612.663h2.952a3.576,3.576,0,0,0,.531-.04,2.189,2.189,0,0,0,1.1-.577,1.9,1.9,0,0,0,1.565.61h.577a7.3,7.3,0,0,0,.763,0,1.95,1.95,0,0,0,1.161-.663,1.99,1.99,0,0,0,1.327.663h2.335c.332,0,.338,0,.345-.352V39.663C115.13,38.933,115.263,39,114.434,39ZM91.7,44.691a1.187,1.187,0,0,1-.968.531h-.763c-.252,0-.212-.073-.212-.226V42.654c0-.179.06-.259.239-.259a2.826,2.826,0,0,1,1.028.06,1.26,1.26,0,0,1,.61.438,1.758,1.758,0,0,1,.066,1.8Zm14.892-1.28a5.3,5.3,0,0,1,0,.776,1.214,1.214,0,0,1-.889,1.041,1.24,1.24,0,0,1-1.108-.756,1.5,1.5,0,0,1,.8-1.99,2.3,2.3,0,0,1,1.061,0c.133,0,.159.093.159.212Z" transform="translate(-30.491 -13.558)" fill="#313131"/><path d="M46.748,29.065a2.1,2.1,0,0,0-1.91-2.176,6.488,6.488,0,0,0-3.065.192,1.818,1.818,0,0,0-1.287,1.327,4.411,4.411,0,0,0-.146,1.214V35.9c.04.325.146.431.464.438h1.612c.325,0,.431-.119.438-.451s0-.842,0-1.26c0-.265-.119-.6.06-.769s.491-.04.743-.04c.584,0,.577,0,.584.577s0,1,0,1.493c0,.3.106.438.371.444h1.8a.338.338,0,0,0,.338-.352c0-.113,0-.232,0-.345V31.4C46.748,30.624,46.787,29.841,46.748,29.065Zm-2.72,2.726h-.955c-.172,0-.212-.066-.212-.226v-2.1c0-.544.066-.59.617-.663a2.348,2.348,0,0,1,.305,0c.292,0,.425.119.438.418v1.26h0v1.068c.04.166.007.259-.192.245Z" transform="translate(-13.604 -9.314)" fill="#313131"/><path d="M186,38.975a.2.2,0,0,0-.219.212c-.007.139,0,.206,0,.305v5.572a.168.168,0,0,1-.179.186h-1.327A.949.949,0,0,1,183.65,45a.391.391,0,0,1-.166-.431,2.416,2.416,0,0,0,0-.537V39.658c0-.7-.06-.75-.763-.663h-.04a.186.186,0,0,0-.186.2V43.91a2.923,2.923,0,0,1,0,.418.942.942,0,0,1-.63.842,1.99,1.99,0,0,1-1.386-.04c-.332-.139-.378-.259-.292-.617a2.335,2.335,0,0,0-2.322-3.025,6.959,6.959,0,0,0-1.479.153c-.272.053-.279.053-.279.338v2.454c0,.265.119.61-.066.769s-.511.046-.776.046a2.2,2.2,0,0,1-1.008-.186c-.332-.166-.385-.272-.352-.663a3.745,3.745,0,0,0,0-.385v-2.03c0-.464,0-.464-.464-.464h0c-.491,0-.491,0-.491.471v2.149a1.022,1.022,0,0,1-1.108,1.095h-.955c-.743,0-.856-.133-.862-.882V39.539c0-.624.053-.59-.61-.59-.378,0-.385,0-.385.385V44.74a1.367,1.367,0,0,0,1.426,1.386H172.1a1.791,1.791,0,0,0,1.187-.464c.08-.066.133-.159.245-.192a1.99,1.99,0,0,0,1.532.663H178.1a2.442,2.442,0,0,0,.378-.04,2.242,2.242,0,0,0,1.174-.584,2.554,2.554,0,0,0,3.43,0c.113.033.172.139.259.206a1.6,1.6,0,0,0,.942.385h2.262c.166,0,.226-.08.226-.232V39.638C186.768,38.909,186.7,38.856,186,38.975Zm-6.813,5.473a1.128,1.128,0,0,1-1.081.776h-.763c-.252,0-.212-.073-.212-.226V42.657c0-.179.066-.259.239-.265a3.317,3.317,0,0,1,.955.046,1.234,1.234,0,0,1,.876.836,1.784,1.784,0,0,1-.013,1.148Z" transform="translate(-58.628 -13.512)" fill="#313131"/><path d="M214.958,41.444a6.554,6.554,0,0,0-1.486.126c-.425.08-.425.08-.425.524v2.567c0,.531,0,.537-.551.544h-.57a1.8,1.8,0,0,1-.8-.219c-.226-.133-.4-.279-.292-.584a1.187,1.187,0,0,0,0-.378V41.988c0-.5,0-.491-.511-.5s-.484.046-.484.478v2.149a1,1,0,0,1-.922,1.075h-2.149c-.133,0-.179-.06-.172-.186s0-.179,0-.265V39.434c0-.524,0-.524-.531-.524s-.458,0-.458.464v6.932a1.839,1.839,0,0,0,0,.272c0,.166-.066.219-.226.219h-1.327a1.1,1.1,0,0,1-1.134-1.194V44.336c0-.783.133-.663-.736-.663-.186,0-.252.08-.252.252v2.109a1.7,1.7,0,0,0,1.035,1.493,2.216,2.216,0,0,0,.962.219h2.342c.3,0,.312,0,.318-.338s0-.59,0-.882c0-.451-.04-.391.378-.4h1.685a2.023,2.023,0,0,0,1.745-.663,1.99,1.99,0,0,0,1.566.663h4.365a.318.318,0,0,0,.338-.232,5.451,5.451,0,0,0,.491-1.99,2.249,2.249,0,0,0-2.2-2.461Zm1.028,3.549a.259.259,0,0,1-.305.212h-1.413c-.192,0-.232-.08-.232-.245V42.7c0-.371,0-.312.325-.332a4.1,4.1,0,0,1,.57,0,1.207,1.207,0,0,1,1.2,1.121,3.515,3.515,0,0,1-.146,1.5Z" transform="translate(-70.304 -13.522)" fill="#313131"/><path d="M160.078,43.085c0-.345,0-.352-.371-.358h-.425a.172.172,0,0,0-.192.186V46.13c0,.179,0,.285-.245.279h-1.95a3.981,3.981,0,0,1-.524-.06l.3-.312a2.979,2.979,0,0,0,.663-1.015,1.572,1.572,0,0,0-.318-1.7,2.322,2.322,0,0,0-1.154-.716,3.735,3.735,0,0,0-2.541.252c-.663.285-.663.292-.862,1.015a.6.6,0,0,0,.086.537,15.107,15.107,0,0,0,1.2,1.678c.06.08.159.133.159.265a13.89,13.89,0,0,1-2.289.066c-.325,0-.471-.172-.517-.5a3.609,3.609,0,0,1,0-.378V43.119c0-.179-.033-.279-.245-.305a9.466,9.466,0,0,0-1.559-.146,2.315,2.315,0,0,0-2.3,2.488,2.255,2.255,0,0,0,2.574,2.169c.066,0,.146,0,.172-.053.106-.279.352-.511.279-.849h-.663a1.247,1.247,0,0,1-1.327-1.254,1.386,1.386,0,0,1,.955-1.559,2.242,2.242,0,0,1,.915,0,.226.226,0,0,1,.212.259v1.327a9.707,9.707,0,0,0,.04,1.108,1.453,1.453,0,0,0,1.638,1.015h.458a11.621,11.621,0,0,0,2.653-.259,1.274,1.274,0,0,1,.663,0,6.282,6.282,0,0,0,1.055.192c1.028.113,2.056.053,3.091.066.352,0,.365,0,.365-.365V44.041C160.078,43.729,160.085,43.41,160.078,43.085Zm-4.9,3.058c-.106.066-.166,0-.226-.08a5.454,5.454,0,0,1-.663-.71,11.159,11.159,0,0,1-.823-1.2c-.066-.106-.113-.192.04-.272a3.47,3.47,0,0,1,1.473-.4,2.461,2.461,0,0,1,.915.212.9.9,0,0,1,.511,1.174,2.507,2.507,0,0,1-1.227,1.28Z" transform="translate(-50.942 -14.724)" fill="#313131"/><path d="M173.866,30.01c-.239-.265-.491-.517-.736-.776s-.259-.2-.04-.491l.292-.4c.385-.537.385-.557-.126-.975-.285-.239-.385-.232-.617.073s-.345.458-.537.716l-1.393-1.459c.08-.126.206-.146.3-.2a1.818,1.818,0,0,0,.962-1.267,3.151,3.151,0,0,0,0-1.221,1.439,1.439,0,0,0-1.161-1.181,3.211,3.211,0,0,0-1.486,0,1.373,1.373,0,0,0-1.075.882,2.421,2.421,0,0,0,.279,2.328c.073.1.186.172.2.325-.1.06-.206.106-.3.166a2.07,2.07,0,0,0-1.028,1.692,6.384,6.384,0,0,0,0,1.068,1.632,1.632,0,0,0,1.26,1.546,4.332,4.332,0,0,0,1.4.133,2.488,2.488,0,0,0,2.05-.929.144.144,0,0,0,.093-.046c.153.159.305.325.464.484.517.551.517.551,1.128.146C174.085,30.395,174.105,30.262,173.866,30.01Zm-4.551-5.725a.557.557,0,0,1,.186-.325,1.227,1.227,0,0,1,1.134,0,.491.491,0,0,1,.192.318,1.49,1.49,0,0,0,.04.418,1.008,1.008,0,0,1-.8,1.114.232.232,0,0,1-.279-.04A1.486,1.486,0,0,1,169.316,24.285Zm1.99,4.982a1.327,1.327,0,0,1-.663.471,3.025,3.025,0,0,1-1.4.053.7.7,0,0,1-.6-.6,2.089,2.089,0,0,1,0-.5v-.338a1.194,1.194,0,0,1,.862-1.1.2.2,0,0,1,.259.06c.524.557,1.048,1.114,1.579,1.665a.186.186,0,0,1-.053.292Z" transform="translate(-57.94 -7.898)" fill="#313131"/><path d="M159.254,31.974a1.406,1.406,0,0,0-1.161-1.214,6.593,6.593,0,0,0-1.446-.133,2.169,2.169,0,0,1-.663-.06.307.307,0,0,1,.007-.577,1.532,1.532,0,0,1,.491-.06,4.929,4.929,0,0,0,.988-.08,1.605,1.605,0,0,0,1.413-1.526,3.927,3.927,0,0,0,0-.882,1.366,1.366,0,0,0-1.048-1.267,3.841,3.841,0,0,0-2.222,0,1.28,1.28,0,0,0-.882.69,2.7,2.7,0,0,0,0,2.083,2.607,2.607,0,0,0,.285.438,1.161,1.161,0,0,0-.08,1.645,1.5,1.5,0,0,0-.663.862,2.421,2.421,0,0,0-.06.876,1.526,1.526,0,0,0,1.373,1.579,7.37,7.37,0,0,0,1.751.08,2.9,2.9,0,0,0,.9-.172,1.42,1.42,0,0,0,1-1.061A2.859,2.859,0,0,0,159.254,31.974ZM155.724,27.6a.6.6,0,0,1,.5-.5,2.163,2.163,0,0,1,.876,0,.61.61,0,0,1,.59.663v.192h0V28.3a.663.663,0,0,1-.491.564,1.9,1.9,0,0,1-.982,0,.577.577,0,0,1-.464-.458,1.791,1.791,0,0,1-.033-.836ZM158.1,32.83a.584.584,0,0,1-.471.537,4.12,4.12,0,0,1-1.738,0,.6.6,0,0,1-.5-.663h0c-.046-.756.126-.942.876-1.041a4.4,4.4,0,0,1,1.181,0c.5.073.663.245.663.75a3.612,3.612,0,0,1-.007.385Z" transform="translate(-53.366 -9.037)" fill="#313131"/><path d="M248.769,42.723a7.3,7.3,0,0,0-1.366.153c-.279.053-.285.053-.285.325v3.144a.126.126,0,0,1-.139.139,8.4,8.4,0,0,1-.915,0,.842.842,0,0,1-.756-.856V43.115c0-.285,0-.3-.305-.305h-.418c-.179,0-.265.066-.265.245v4.093a4.063,4.063,0,0,1,0,.57.9.9,0,0,1-.617.763,4.04,4.04,0,0,1-.4.113c-.153.04-.206.126-.133.279s.153.352.232.524a.159.159,0,0,0,.2.126,2.03,2.03,0,0,0,1.638-1.386,5.04,5.04,0,0,0,.126-1.008,1.891,1.891,0,0,0,.876.272h4.179a.352.352,0,0,0,.4-.252,6.853,6.853,0,0,0,.464-1.658,2.308,2.308,0,0,0-2.508-2.766Zm1.26,3.615c-.04.126-.119.146-.232.146H248.3c-.146,0-.2-.053-.2-.2V43.871c0-.146.073-.2.206-.212a3.516,3.516,0,0,1,.876,0,1.161,1.161,0,0,1,.988.942A3.151,3.151,0,0,1,250.029,46.339Z" transform="translate(-84.174 -14.821)" fill="#313131"/><path d="M131.523,27.408a1.466,1.466,0,0,0-1.134-1.294,3.814,3.814,0,0,0-1.665-.066,1.619,1.619,0,0,0-1.506,1.718v1.267h0v1.373a1.519,1.519,0,0,0,1.294,1.559,3.788,3.788,0,0,0,1.366.053,1.7,1.7,0,0,0,1.692-1.957V27.986A4.056,4.056,0,0,0,131.523,27.408Zm-1.161,2.653a.756.756,0,0,1-.75.842,1.9,1.9,0,0,1-.192,0c-.736,0-1.008-.212-1.022-.949s0-1.327,0-2.03v-.265a.663.663,0,0,1,.577-.624,2.043,2.043,0,0,1,.8,0,.663.663,0,0,1,.557.663v1.227h0a8.8,8.8,0,0,1,.053,1.154Z" transform="translate(-44.026 -9.013)" fill="#313131"/><path d="M103.636,29.023V27.7a1.325,1.325,0,0,0,0-.153A1.473,1.473,0,0,0,102.5,26.13a3.516,3.516,0,0,0-2.076,0,1.486,1.486,0,0,0-1.088,1.294,11.941,11.941,0,0,0-.04,1.685,10.2,10.2,0,0,0,.027,1.526,1.473,1.473,0,0,0,1.1,1.247,3.549,3.549,0,0,0,1.99,0,1.532,1.532,0,0,0,1.24-1.579C103.65,29.892,103.636,29.46,103.636,29.023Zm-2.3,1.91c-.624,0-.842-.252-.856-.876V28.943h0V27.868a.723.723,0,0,1,.8-.816,2.906,2.906,0,0,1,.537,0,.61.61,0,0,1,.6.59,1.786,1.786,0,0,1,.04.378V29.9C102.456,30.635,102.2,30.96,101.335,30.933Z" transform="translate(-34.362 -9.008)" fill="#313131"/><path d="M243.921,29.015V27.563a1.446,1.446,0,0,0-1.154-1.439,3.576,3.576,0,0,0-1.924,0,1.526,1.526,0,0,0-1.234,1.426,16.532,16.532,0,0,0-.033,1.718,10.018,10.018,0,0,0,.04,1.327,1.486,1.486,0,0,0,1.121,1.327,3.788,3.788,0,0,0,1.771.046,1.6,1.6,0,0,0,1.453-1.685c0-.425,0-.842,0-1.267Zm-2.262,1.93a1.327,1.327,0,0,1-.226,0,.663.663,0,0,1-.663-.71V27.9c0-.551.252-.789.8-.816a2.733,2.733,0,0,1,.57,0,.6.6,0,0,1,.557.544,2.975,2.975,0,0,1,.04.418v1.877C242.74,30.687,242.435,30.979,241.658,30.946Z" transform="translate(-82.974 -9.014)" fill="#313131"/><path d="M224.724,29.452V27.847a2.273,2.273,0,0,0,0-.305,1.506,1.506,0,0,0-1.24-1.459,4.425,4.425,0,0,0-2.083.066.365.365,0,0,0-.305.345,2.322,2.322,0,0,1-.046.3c0,.378.073.471.438.4a1.329,1.329,0,0,1,.153-.04,4.644,4.644,0,0,1,1.254-.1.663.663,0,0,1,.663.663v.226c0,.073-.046.239-.212.232a5.305,5.305,0,0,0-.663,0,3.681,3.681,0,0,0-1.406.318,1.327,1.327,0,0,0-.736.922,3,3,0,0,0,0,1.214,1.386,1.386,0,0,0,1.207,1.333,4.968,4.968,0,0,0,2.567-.186c.358-.119.411-.2.418-.584V29.472Zm-1.373,1.459a3.456,3.456,0,0,1-1.108.04c-.378-.046-.524-.219-.57-.6a1,1,0,0,1,0-.192c0-.61.146-.783.75-.9a7.715,7.715,0,0,1,.955-.073c.153,0,.2.06.192.206s0,.431,0,.663v.61a.206.206,0,0,1-.219.239Z" transform="translate(-76.548 -9.014)" fill="#313131"/><path d="M202.963,27.714a1.539,1.539,0,0,0-1.207-1.612,4.245,4.245,0,0,0-2.156.053.385.385,0,0,0-.305.391v.265c0,.378.08.458.451.378a5.367,5.367,0,0,1,1.214-.139c.61,0,.829.219.862.829,0,.285,0,.305-.279.318h-.537a4.046,4.046,0,0,0-1.327.265,1.327,1.327,0,0,0-.9,1.26,5.972,5.972,0,0,0,0,.769,1.406,1.406,0,0,0,1.187,1.473,4.955,4.955,0,0,0,2.6-.192c.345-.119.4-.2.4-.557V29.492h0C202.963,28.882,202.983,28.3,202.963,27.714ZM201.8,30.527c0,.352,0,.358-.338.411a3.078,3.078,0,0,1-.955,0,.6.6,0,0,1-.6-.663c-.046-.736.1-.915.842-1.041a5.545,5.545,0,0,1,.876-.053c.126,0,.186.046.179.179s0,.458,0,.663Z" transform="translate(-68.775 -9.013)" fill="#313131"/><path d="M31.228,45.022a1.287,1.287,0,0,0-.869-.663,1.711,1.711,0,0,0-2.169,1.605,1.665,1.665,0,0,0,1.7,1.917,3.5,3.5,0,0,0,.876-.073c.517-.113.5-.106.411-.624-.04-.219-.133-.245-.312-.192a2.408,2.408,0,0,1-.949.053A.783.783,0,0,1,29.3,46.7c-.113-.179-.08-.245.133-.252s.59,0,.882,0H31.2c.186,0,.245-.08.259-.245A2.143,2.143,0,0,0,31.228,45.022Zm-1,.663H29.51c-.312,0-.352-.08-.2-.352a.6.6,0,0,1,.617-.345.564.564,0,0,1,.491.418c.066.232.04.279-.186.285Z" transform="translate(-9.508 -15.34)" fill="#bf2d2c"/><path d="M46.961,45.775a1.512,1.512,0,0,0-.829-1.373,1.605,1.605,0,0,0-1.7.159,1.824,1.824,0,0,0-.7,1.8,1.512,1.512,0,0,0,1.187,1.386,2.939,2.939,0,0,0,1.4,0c.484-.106.471-.119.378-.617-.04-.212-.126-.245-.312-.192a2.262,2.262,0,0,1-.988.046.73.73,0,0,1-.663-.59H46.4C47,46.392,47.021,46.379,46.961,45.775Zm-1.181-.106h-.418a2.99,2.99,0,0,0-.345,0c-.325.033-.338-.086-.2-.358a.624.624,0,0,1,.624-.352.6.6,0,0,1,.5.464C45.993,45.609,45.96,45.662,45.781,45.669Z" transform="translate(-14.733 -15.317)" fill="#bf2d2c"/></g></g></g></svg>