<svg xmlns="http://www.w3.org/2000/svg" xmlns:xlink="http://www.w3.org/1999/xlink" width="88" height="89" viewBox="0 0 88 89"><defs><filter id="a" x="0" y="0" width="88" height="89" filterUnits="userSpaceOnUse"><feOffset input="SourceAlpha"/><feGaussianBlur stdDeviation="3" result="b"/><feFlood flood-opacity="0.102"/><feComposite operator="in" in2="b"/><feComposite in="SourceGraphic"/></filter></defs><g transform="translate(9.478 8.375)"><g transform="matrix(1, 0, 0, 1, -9.48, -8.38)" filter="url(#a)"><rect width="70" height="71" rx="10" transform="translate(9 9)" fill="#fff"/></g><g transform="translate(7.671 9.658)"><path d="M167.287,361.7l-.159.895a9.832,9.832,0,0,0,3.454,0l-.159-.895a8.594,8.594,0,0,1-3.137,0Z" transform="translate(-159.33 -326.499)" fill="#71b7bf"/><path d="M190.848,284.939v-7.883a3.706,3.706,0,0,0,1.812-3.194v-.238a2.265,2.265,0,0,0-4.53,0v.238a3.693,3.693,0,0,0,1.812,3.194v7.883Zm-1.812-11.088v-.238a1.359,1.359,0,1,1,2.718,0v.238a2.808,2.808,0,0,1-1.359,2.412A2.808,2.808,0,0,1,189.036,273.851Z" transform="translate(-178.157 -245.513)" fill="#71b7bf"/><path d="M145.046,43.577l-8.155-4.53a.44.44,0,0,0-.442,0L130.243,42.5a13.2,13.2,0,0,0-6.92-6.229h1.019a2.255,2.255,0,0,0,2.209-1.778l1.008-4.53a2.268,2.268,0,0,0-1.722-2.707,2.38,2.38,0,0,0-.487-.057H120.99l.815-2.458a2.268,2.268,0,0,0-1.427-2.866,2.188,2.188,0,0,0-.714-.113h-1.11a.453.453,0,0,0-.43.306l-1.71,5.142h-7.826v.906h5.89v5.437h-5.89v.906h7.962l.951.951a13.1,13.1,0,0,0-9.944,5.9A9.511,9.511,0,1,0,95.11,55.7a8.874,8.874,0,0,0,1.472,1.042l.453-.782a8.606,8.606,0,1,1,8.608,0l.453.782a9.5,9.5,0,0,0,1.461-1.042,13.167,13.167,0,0,0,4.848,4.417l-1.3,1.529h-.249a1.81,1.81,0,0,0-.872,3.4l1.518,8.336a2.261,2.261,0,0,0,2.231,1.858h9.661a2.261,2.261,0,0,0,2.231-1.858l1.518-8.336a1.811,1.811,0,0,0-.872-3.4h-.249L124.7,60.113a13.455,13.455,0,0,0,3.364-2.548.454.454,0,0,0,.453.453h16.31a.454.454,0,0,0,.453-.453V43.974a.444.444,0,0,0-.238-.4ZM117.059,33.69a.447.447,0,0,0-.317-.136h-1.359V28.117h1.359a.453.453,0,0,0,.43-.306l1.71-5.131h.782a1.364,1.364,0,0,1,1.291,1.79l-1.019,3.047a.456.456,0,0,0,.283.578.574.574,0,0,0,.147.023h4.995a1.363,1.363,0,0,1,1.359,1.359,1.307,1.307,0,0,1-.034.294l-1.008,4.53a1.357,1.357,0,0,1-1.325,1.065h-5.04a1.393,1.393,0,0,1-.963-.4ZM125.8,67.26v-.181h-3.624v.906h3.488l-.951,5.221a1.36,1.36,0,0,1-1.336,1.121h-9.661a1.35,1.35,0,0,1-1.336-1.121l-.283-1.6h2.832V70.7h-3l-.5-2.718h5.312v-.906h-5.437v.181l-.362-1.993h15.222Zm.453-4.712a.906.906,0,1,1,0,1.812h-15.4a.906.906,0,0,1,0-1.812Zm2.05-18.971a.444.444,0,0,0-.238.4V56.2a12.3,12.3,0,0,1-3.975,3.217l-3.386-3.953-.691.589,4.791,5.6H112.291l4.791-5.6-.691-.589L113,59.412a12.113,12.113,0,0,1-4.78-4.349,9.5,9.5,0,0,0,0-13.116,12.24,12.24,0,0,1,21.225.985Zm14.259,13.534H130.786V55.64h11.779Zm0-5.89H140.3v.906h2.265v2.6H130.786v-2.6h2.265v-.906h-2.265v-2.6h11.779Zm0-3.511H130.786V46.239h11.779Zm1.812,9.4h-.906V45.786a.454.454,0,0,0-.453-.453H130.333a.454.454,0,0,0-.453.453V57.112h-.906V44.246l7.7-4.281,7.7,4.281Z" transform="translate(-91.819 -21.763)" fill="#71b7bf"/><path d="M498.75,223.12h5.436v.906H498.75Z" transform="translate(-456.611 -202.269)" fill="#71b7bf"/><path d="M501.641,293.269a.411.411,0,0,0,.317-.136l3.624-3.624-.646-.646-3.3,3.307-1.042-1.042-.646.646,1.359,1.359a.453.453,0,0,0,.328.136Z" transform="translate(-457.69 -261.204)" fill="#71b7bf"/><path d="M160.1,228.739a.411.411,0,0,0,.317-.136l3.624-3.624-.646-.646-3.3,3.307-1.076-1.076-.646.646,1.393,1.393a.454.454,0,0,0,.328.136Z" transform="translate(-151.483 -203.356)" fill="#71b7bf"/><path d="M138.348,284.841v-7.883a3.706,3.706,0,0,0,1.812-3.194V271.25h-.906v2.5a2.808,2.808,0,0,1-1.359,2.412,2.808,2.808,0,0,1-1.359-2.412v-2.5h-.906v2.5a3.692,3.692,0,0,0,1.812,3.194v7.894Z" transform="translate(-131.093 -245.415)" fill="#71b7bf"/><path d="M170.186,343.88a6.739,6.739,0,0,1-3.081,0l-.2.883a7.934,7.934,0,0,0,3.5,0Z" transform="translate(-159.126 -310.524)" fill="#71b7bf"/><path d="M124.773,213.327a7.7,7.7,0,1,0-12.391,6.1l.555-.714a6.793,6.793,0,1,1,9.525-1.246,6.523,6.523,0,0,1-1.065,1.1l.578.7a7.728,7.728,0,0,0,2.8-5.946Z" transform="translate(-107.553 -186.586)" fill="#71b7bf"/><path d="M320.69,463.033l1.812,1.812a.451.451,0,0,0,.646,0l3.624-3.624-.646-.646-3.307,3.307-1.5-1.5Z" transform="translate(-296.99 -415.135)" fill="#71b7bf"/><path d="M376.25,494.38h3.624v.906H376.25Z" transform="translate(-346.797 -445.439)" fill="#71b7bf"/><path d="M413.36,45.286l.872-.238a26.777,26.777,0,0,0-21.2-19.345l-.159.895A25.845,25.845,0,0,1,413.36,45.286Z" transform="translate(-361.696 -25.295)" fill="#71b7bf"/><path d="M125.753,23.328l-.057-.906a26.785,26.785,0,0,0-23.864,19.3l.872.249a25.877,25.877,0,0,1,23.049-18.643Z" transform="translate(-100.796 -22.354)" fill="#71b7bf"/><path d="M108.947,359.616A25.82,25.82,0,0,1,102.7,348.8l-.872.249a26.779,26.779,0,0,0,17.408,18.042l.283-.861a25.947,25.947,0,0,1-10.568-6.614Z" transform="translate(-100.787 -314.935)" fill="#71b7bf"/><path d="M427.44,397.008l.283.861a26.824,26.824,0,0,0,16.049-14.362l-.827-.374a25.933,25.933,0,0,1-15.5,13.874Z" transform="translate(-392.686 -345.712)" fill="#71b7bf"/><path d="M294.449,206.853a.451.451,0,0,0-.646,0l-6.92,6.92-2.4-2.4a.451.451,0,0,0-.646,0l-2.718,2.718a.451.451,0,0,0,0,.646l5.436,5.437a.451.451,0,0,0,.646,0l9.967-9.967a.451.451,0,0,0,0-.646Zm-7.566,12.357-4.791-4.791,2.073-2.073,2.4,2.4a.451.451,0,0,0,.646,0l6.932-6.932,2.073,2.073Z" transform="translate(-261.394 -187.565)" fill="#71b7bf"/><path d="M153.12,271.25h.906v3.624h-.906Z" transform="translate(-146.772 -245.415)" fill="#71b7bf"/></g></g></svg>