<svg xmlns="http://www.w3.org/2000/svg" width="55.454" height="55.454" viewBox="0 0 55.454 55.454"><path d="M14.472,6A8.507,8.507,0,0,0,6,14.472v4.621a2.311,2.311,0,1,0,4.621,0V14.472a3.817,3.817,0,0,1,3.851-3.851h4.621a2.311,2.311,0,1,0,0-4.621ZM48.36,6a2.311,2.311,0,1,0,0,4.621h4.621a3.817,3.817,0,0,1,3.851,3.851v4.621a2.311,2.311,0,1,0,4.621,0V14.472A8.507,8.507,0,0,0,52.981,6ZM33.727,19.863a21.742,21.742,0,0,0-17.179,7.762,23.291,23.291,0,0,0-4.3,7.792A2.311,2.311,0,1,0,16.7,36.657a18.219,18.219,0,0,1,3.4-6.071c2.565-3.078,6.62-6.1,13.629-6.1s11.064,3.023,13.629,6.1a18.22,18.22,0,0,1,3.4,6.071,2.311,2.311,0,1,0,4.453-1.239,23.292,23.292,0,0,0-4.3-7.792A21.742,21.742,0,0,0,33.727,19.863Zm0,7.7A9.173,9.173,0,0,0,26.8,30.508a9.724,9.724,0,0,0,0,12.6,9.173,9.173,0,0,0,6.926,2.942,9.173,9.173,0,0,0,6.926-2.942,9.724,9.724,0,0,0,0-12.6A9.173,9.173,0,0,0,33.727,27.565Zm0,4.621a4.258,4.258,0,0,1,3.472,1.39,5.117,5.117,0,0,1,0,6.462,4.258,4.258,0,0,1-3.472,1.39,4.258,4.258,0,0,1-3.472-1.39,5.117,5.117,0,0,1,0-6.462A4.258,4.258,0,0,1,33.727,32.186ZM8.275,46.017A2.311,2.311,0,0,0,6,48.36v4.621a8.507,8.507,0,0,0,8.472,8.472h4.621a2.311,2.311,0,1,0,0-4.621H14.472a3.817,3.817,0,0,1-3.851-3.851V48.36a2.311,2.311,0,0,0-2.347-2.344Zm50.832,0a2.311,2.311,0,0,0-2.275,2.344v4.621a3.817,3.817,0,0,1-3.851,3.851H48.36a2.311,2.311,0,1,0,0,4.621h4.621a8.507,8.507,0,0,0,8.472-8.472V48.36a2.311,2.311,0,0,0-2.347-2.344Z" transform="translate(-6 -6)" fill="#6a35ff"/></svg>