<svg xmlns="http://www.w3.org/2000/svg" width="356.459" height="106.628" viewBox="0 0 356.459 106.628"><g transform="translate(-0.036 0.002)"><g transform="translate(0.036 -0.002)"><path d="M48.927,106.626A53.026,53.026,0,0,1,11.487,91.178l-.293-.279a.293.293,0,0,1,0-.474l.279-.293q4.3-4.312,8.568-8.652l.293-.279c.14-.167.293-.209.46,0l.46.46A39.072,39.072,0,0,0,41.991,92.351,39.63,39.63,0,0,0,86.869,64.763a38.835,38.835,0,0,0,1.563-14.638A39.63,39.63,0,0,0,58.29,14.792,40.467,40.467,0,0,0,50.741,13.7c-.377,0-.516-.1-.516-.5,0-4.186-.07-8.373-.1-12.657,0-.544,0-.558.614-.544,1.884.084,3.754.223,5.582.488A50.878,50.878,0,0,1,72.579,5.583,53.026,53.026,0,0,1,101,41.864a49.956,49.956,0,0,1,1.13,14.889,53.417,53.417,0,0,1-40.761,48.394,52.635,52.635,0,0,1-12.447,1.479Z" transform="translate(4.328 0.002)" fill="#27ab83"/><path d="M13.089,83.732A53.026,53.026,0,0,1,15.8,11.17c.251,0,.377.265.53.433q4.312,4.354,8.6,8.721c.586.6.474.516,0,.991a39.3,39.3,0,0,0-10.2,18.545,36.141,36.141,0,0,0-.935,6.112A39.281,39.281,0,0,0,22.313,73.5c.084.1.167.209.265.307a.321.321,0,0,1,0,.544l-.167.167L13.465,83.5C13.354,83.579,13.256,83.719,13.089,83.732Z" transform="translate(-0.036 4.42)" fill="#2680c2"/><path d="M46.187,6.977V12.95c0,.7,0,.712-.656.754A39.854,39.854,0,0,0,23.2,22.453c-.642.53-.474.572-1.13-.084L13.52,13.717c-.572-.6-.558-.516,0-1.019A53.208,53.208,0,0,1,34.982,1.535,55.579,55.579,0,0,1,45.573,0c.614,0,.614,0,.628.614V6.977Z" transform="translate(5.128 0.003)" fill="#ba2525"/><path d="M28.221,36.537c-.586,1.549-1.214,3.084-1.926,4.591a1.312,1.312,0,0,1-2.414,0c-.6-1.4-1.2-2.791-1.814-4.186-.1-.223-.126-.516-.391-.7,0,2.121.112,4.186.153,6.293v3.223c0,1.074-.251,1.116-1.116,1.116H17.392c-.865,0-1.1-.251-1.1-1.1V28.192c0-.865.237-1.1,1.088-1.1h3.391c1.228,0,1.4.1,1.758,1.228l2.121,6.238a4.019,4.019,0,0,0,.46,1.13,1.758,1.758,0,0,0,.349-.754c.7-2.079,1.4-4.186,2.107-6.252.112-.321.223-.656.363-.977a.907.907,0,0,1,.879-.6h3.949c.586,0,.8.265.851.851v17.4c0,1.4-.126,1.4-1.493,1.4H29.463c-.977,0-1.242-.251-1.228-1.256,0-2.3,0-4.619.112-6.977V37.235a3.935,3.935,0,0,0,0-1.214c0-.112-.1,0,0,0h0A.53.53,0,0,1,28.221,36.537Z" transform="translate(6.391 10.715)" fill="#ebeffa"/><path d="M36.284,46.8H31.442a4.927,4.927,0,0,1-.642,0,.7.7,0,0,1-.684-.754,4.591,4.591,0,0,1,.614-2.791c1.144-1.884,2.191-3.823,3.321-5.707a1.284,1.284,0,0,0,0-1.479c-1-1.744-1.912-3.544-2.916-5.289a5.065,5.065,0,0,1-.572-2.944c0-.488.209-.656.712-.712a4.828,4.828,0,0,1,.642,0h9.768c.544,0,.74.223.767.74s0,1.13,0,1.7a.628.628,0,0,1-.628.684H37.47c-1.158,0-1.214.321-.7,1.158.8,1.4,1.521,2.791,2.316,4.047a2.093,2.093,0,0,1,0,2.33c-.754,1.563-1.493,3.126-2.3,4.661a2.79,2.79,0,0,0-.251.5c-.153.377,0,.572.349.628a3.726,3.726,0,0,0,.558,0h3.949c.879,0,1.019.167,1.033,1.047v1.4c0,.488-.181.684-.67.754a3.251,3.251,0,0,1-.642,0Z" transform="translate(11.849 10.724)" fill="#ebeffa"/><path d="M51.88,36.858V28.15c0-.907.251-1.116,1.172-1.13h2.9c.991,0,1.228.251,1.228,1.256V41.407c0,1.144-.2,1.033,1.019,1.033h4.033a3.727,3.727,0,0,1,.558,0c.488,0,.656.2.628.656a27.706,27.706,0,0,1-.293,3.042.74.74,0,0,1-.712.656,4.94,4.94,0,0,1-.642,0h-8.54a3.725,3.725,0,0,1-.558,0,.754.754,0,0,1-.767-.781,5.051,5.051,0,0,1,0-.8Z" transform="translate(20.464 10.688)" fill="#ebeffa"/><path d="M98.078,27.407a1.94,1.94,0,0,0-.474.823c-.851,1.856-1.675,3.712-2.512,5.582a1.033,1.033,0,0,1-1.284.7c-.433-.07-.6-.391-.754-.74l-2.6-5.582a2.093,2.093,0,0,0-.474-.684V39.143a.572.572,0,0,1-.53.53h0c-1.968,0-1.884.14-1.884-1.6V24.282c0-1.242,0-1.3,1.256-1.284,2.037,0,1.647-.279,2.526,1.619s1.758,3.8,2.637,5.707l.2.335.74-1.633c.781-1.73,1.591-3.461,2.344-5.2a1.144,1.144,0,0,1,1.284-.837h1.4c.488,0,.656.181.726.684V38.613c0,.893-.14,1-1.047,1.019-1.4,0-1.4,0-1.4-1.4V27.756C98.106,27.659,98.092,27.589,98.078,27.407Z" transform="translate(34.577 9.086)" fill="#ebeffa"/><path d="M234.174,53.5a12.219,12.219,0,0,1-.153,1.675A4.186,4.186,0,0,1,230.5,58.52c-.223,0-.349,0-.447-.2l-.126-.307c-.14-.391-.53-.767-.4-1.172s.684-.293,1.047-.447a2.009,2.009,0,0,0,1.4-1.535,4.98,4.98,0,0,0,.1-1.2c0-2.791,0-5.484,0-8.219v-.488c0-.433.2-.558.586-.558,1.772,0,1.493-.167,1.507,1.4s.084,2.958,0,4.437a1.912,1.912,0,0,0,1.786,1.884h8.638c.656,0,.656,0,.837-.6a4.9,4.9,0,0,0,.251-2.372,2.2,2.2,0,0,0-1.577-1.856,4.647,4.647,0,0,0-1.521-.2h-4.507a.809.809,0,0,1-.921-.558c-.516-1.214-.544-1.2.335-2.177,1.493-1.647,3-3.293,4.479-4.968a1.13,1.13,0,0,1,1.047-.447h1.047c.349,0,.46,0,.586.181s-.112.377-.251.53c-.474.516-.963,1.019-1.4,1.521-1.047,1.116-2.107,2.219-3.168,3.335a1.2,1.2,0,0,0-.447.642h2.875a12.1,12.1,0,0,1,2.247.167,4.186,4.186,0,0,1,3.4,4.744,11.024,11.024,0,0,1-1.074,3.614.572.572,0,0,1-.614.377H236.058A3.893,3.893,0,0,1,234.174,53.5Z" transform="translate(90.702 15.399)" fill="#ebeffa"/><path d="M183.452,31.283V23.831c0-.712.153-.837.865-.851h7.089c.684,0,.767.1.907.767v.237c.14.977,0,1.158-.977,1.172h-4.828c-.572,0-.586,0-.586.572v3.544c0,.447.154.544.558.544h3.7c.893,0,1.033.153,1.047,1.019v.251c0,.907-.1,1-1.019,1.019h-3.628c-.628,0-.642,0-.642.6v4.117c0,.558,0,.572.572.572h4.912a4.94,4.94,0,0,1,.642,0,.558.558,0,0,1,.516.614,1.4,1.4,0,0,1,0,.237c-.1,1.284-.223,1.4-1.493,1.4h-6.279c-1.4,0-1.4,0-1.4-1.4Z" transform="translate(72.475 9.09)" fill="#ebeffa"/><path d="M108.17,32.6V28c0-1,.1-1.158,1.019-1.465a10.019,10.019,0,0,1,4.758-.433,3.209,3.209,0,0,1,3.028,3.447v7.968c0,.767-.14.893-.893.921H115.2c-.544,0-.712-.2-.754-.74V30.525a8.747,8.747,0,0,0,0-1.047,1.172,1.172,0,0,0-1.158-1.214,6.977,6.977,0,0,0-2.093.07c-.363,0-.474.223-.474.586v8.54c0,.851-.126.963-.991.977h-.656c-.726,0-.879-.167-.893-.921s0-1.284,0-1.94Z" transform="translate(42.723 10.28)" fill="#ebeffa"/><path d="M248.482,32.633V27.875c0-.865.1-1,.907-1.3a9.768,9.768,0,0,1,4.828-.474,3.223,3.223,0,0,1,3.07,3.489v7.9c0,.809-.126.935-.935.949h-.642c-.781,0-.949-.167-.949-.949V29.828c0-1.186-.447-1.577-1.633-1.6a11.081,11.081,0,0,0-1.4.07c-.74.1-.74.126-.74.837v8.038c0,1.326,0,1.326-1.4,1.326h-.07c-.991,0-1.088-.112-1.088-1.13V36.317Z" transform="translate(98.19 10.28)" fill="#ebeffa"/><path d="M146.19,32.619V27.861c0-.837.112-1,.921-1.284a9.768,9.768,0,0,1,4.828-.474A3.2,3.2,0,0,1,155,29.521V37.5c0,.809-.126.921-.949.935H153.4c-.781,0-.935-.167-.935-.963V30.5a9.944,9.944,0,0,0,0-1.116,1.186,1.186,0,0,0-1.144-1.158,4.186,4.186,0,0,0-.726,0c-1.842,0-1.842,0-1.842,1.814v7.689c0,.572-.181.712-.726.74a6.726,6.726,0,0,1-1.061,0c-.53,0-.712-.181-.74-.726s0-1.019,0-1.535Z" transform="translate(57.757 10.28)" fill="#ebeffa"/><path d="M221.013,32.069v4.758c0,.8-.1.949-.879,1.214a9.991,9.991,0,0,1-5.079.447,3.1,3.1,0,0,1-2.791-2.986,9.773,9.773,0,0,1-.084-1.284V27.45c0-1.019.112-1.144,1.144-1.228,1.4-.112,1.4-.1,1.4,1.312V34.3c0,1.73.433,2.219,2.316,2.079s1.4,0,1.4-1.563V27.562a4.973,4.973,0,0,1,0-.642c0-.558.209-.712.767-.67,1.884.14,1.758.1,1.744,1.772Z" transform="translate(83.852 10.355)" fill="#ebeffa"/><path d="M195.638,34.835c.237-.112.209-.321.265-.488l2.009-7.117c.307-1.1.335-1.116,1.4-1.019h.153c.963.1,1.144.349.879,1.242l-3.056,10.089c-.223.726-.321.8-1.088.809h-.963c-.851,0-.949,0-1.2-.879-.433-1.4-.851-2.791-1.284-4.186-.572-1.87-1.13-3.74-1.689-5.582a3.322,3.322,0,0,1-.154-.53c-.084-.488,0-.726.53-.823a6.151,6.151,0,0,1,.949-.1c.684,0,.851,0,1.047.712.363,1.2.7,2.414,1.033,3.628Z" transform="translate(75.429 10.353)" fill="#ebeffa"/><path d="M234.2,37.18h1.061a.474.474,0,0,1,.5.516,3.891,3.891,0,0,1,0,.4c0,1.144-.237,1.4-1.4,1.4a10.285,10.285,0,0,1-1.6,0,2.665,2.665,0,0,1-2.637-2.847V29.715c0-.586,0-.628-.558-.6-1.4.084-1.228-.293-1.2-1.4,0-.474.167-.586.656-.628s.781.14,1-.112.084-.767.1-1.158,0-.809,0-1.214a.642.642,0,0,1,.6-.712c.349,0,.7-.1,1.047-.126.628,0,.823.126.851.767s0,1.4,0,2.009c0,.433.154.572.572.544s1.13,0,1.688,0,.642.112.74.642c.209,1.3.154,1.4-1.172,1.4h-1.061c-.754,0-.754,0-.754.726v6.21c0,.921.2,1.061,1.1,1.088Z" transform="translate(90.244 9.402)" fill="#ebeffa"/><path d="M122.049,33.049V29.672c0-.377-.1-.572-.5-.516h-.154c-.363,0-.809.14-1.019-.279a2.051,2.051,0,0,1,0-1.4c0-.307.335-.363.614-.391s.781.153,1-.1.084-.726.1-1.088,0-.865,0-1.284a.642.642,0,0,1,.614-.712l.879-.112c.768-.1.977.07,1,.837v1.619c0,.837,0,.837.809.837h1.4c.544,0,.628.112.726.642.209,1.312.154,1.4-1.186,1.4h-1.214c-.572,0-.586,0-.586.586V36.23c0,.74.2.879.949.921h1.284c.809,0,.921.084.879.921a1.4,1.4,0,0,1,0,.237c0,.851-.265,1.061-1.144,1.13a11.36,11.36,0,0,1-1.688,0,2.791,2.791,0,0,1-2.791-2.916V33.049Z" transform="translate(47.501 9.403)" fill="#ebeffa"/><path d="M207.48,30.262V23.731c0-.991.112-1.088,1.088-1.186,1.4-.14,1.4-.1,1.4,1.27V36.067a4.282,4.282,0,0,0,.07,1.033.628.628,0,0,0,.656.586h.963c.2,0,.4,0,.488.223a2.5,2.5,0,0,1,0,1.563c-.126.433-.53.5-.921.5a11.43,11.43,0,0,1-1.2,0,2.512,2.512,0,0,1-2.442-2.358,11.165,11.165,0,0,1,0-1.521C207.48,34.127,207.48,32.2,207.48,30.262Z" transform="translate(81.993 8.897)" fill="#ebeffa"/><path d="M136.008,33.489a40.207,40.207,0,0,1,.084-4.675,2.791,2.791,0,0,1,2.568-2.707,6.712,6.712,0,0,1,2.637,0,.823.823,0,0,1,.781.865,6.188,6.188,0,0,1,0,.879c0,.516-.209.7-.712.614a7.843,7.843,0,0,0-1.284-.112c-1.27,0-1.577.265-1.577,1.535v7.717c0,.614-.167.754-.754.8h-.809c-.8,0-.949-.154-.963-.935V34.089Z" transform="translate(53.72 10.275)" fill="#ebeffa"/><path d="M35.916,44.45c.153.265,0,.558.251.837.167-.153.335-.307.516-.447a2.554,2.554,0,0,1,4.186,1.4A4.27,4.27,0,0,1,41,47.268v3.7c0,.684,0,.684-.726.684h-.879c-.628,0-.628,0-.642-.6V47.924a4.494,4.494,0,0,0-.084-.963,1.061,1.061,0,0,0-.921-.879,1.13,1.13,0,0,0-1.144.6,1.772,1.772,0,0,0-.223,1v3.377c0,.6,0,.6-.642.6a7.563,7.563,0,0,1-.8,0c-.8,0-.809,0-.809-.767V44.784c0-.321.112-.391.391-.377a10.619,10.619,0,0,1,1.4.042Z" transform="translate(13.445 17.483)" fill="#ebeffa"/><path d="M133.82,46.565V53.25c0,.809,0,.809-.8.809-1.4,0-1.284.154-1.284-1.3v-13.3a.44.44,0,0,1,.488-.5h.084c1.87,0,1.493-.1,1.507,1.4C133.834,42.421,133.82,44.486,133.82,46.565Z" transform="translate(52.043 15.409)" fill="#ebeffa"/><path d="M237.931,32.28v5.079c0,.893-.14,1-1.033,1.019h-.893a.6.6,0,0,1-.614-.614V27.34a2.459,2.459,0,0,1,0-.321c0-.516.209-.7.74-.781a6.3,6.3,0,0,1,.963-.1c.544,0,.8.153.823.726s0,.963,0,1.4Z" transform="translate(93.029 10.34)" fill="#ebeffa"/><path d="M119.474,32.275V37.02c0,1.4,0,1.4-1.4,1.4h-.237c-.781,0-.921-.154-.921-.963V27.21c0-.837.167-.837.837-.921l.712-.084c.74-.084.963.112.977.879s0,1.4,0,2.093Z" transform="translate(46.183 10.358)" fill="#ebeffa"/><path d="M141.9,32.283V27.329c0-.823.14-.963.963-1.047.265,0,.53-.084.8-.1a.628.628,0,0,1,.768.642,3.684,3.684,0,0,1,0,.558V37.627c0,.544-.209.684-.768.726h-.642c-1.033,0-1.116-.084-1.116-1.088Z" transform="translate(56.061 10.351)" fill="#ebeffa"/><path d="M44.615,45.82v.391c0,.265-.084.419-.363.4h-.167c-1.061,0-1.061,0-1.061,1.158v1.688c0,.823.209,1,1.019,1,.391,0,.488.126.5.5,0,1.256-.07,1.4-1.4,1.4a2.121,2.121,0,0,1-2.372-2.177v-2.9c0-.586,0-.614-.586-.656-.321,0-.4-.167-.391-.46s0-.377,0-.558c0-.558,0-.572.6-.642.279,0,.391-.126.377-.391v-.154c0-.363-.181-.823.14-1.074a2.791,2.791,0,0,1,.991-.279C43,42.806,43,42.806,43,43.95s-.084.949.865.949S44.615,44.9,44.615,45.82Z" transform="translate(15.687 16.978)" fill="#ebeffa"/><path d="M29.114,49.856a1.67,1.67,0,0,0,.084.335c.237,1.4.433,1.27-1.088,1.549a4.186,4.186,0,0,1-1.4,0,3.461,3.461,0,0,1-3.112-3.53,3.67,3.67,0,0,1,3.014-3.823,5.791,5.791,0,0,1,2.4,0c.335,0,.46.237.349.558s0,.265-.07.4c-.167.74-.167.74-.949.656-1.549-.167-2.512.684-2.414,2.149A1.87,1.87,0,0,0,27.956,50,9.623,9.623,0,0,0,29.114,49.856Z" transform="translate(9.28 17.505)" fill="#ebeffa"/><path d="M143.628,43.1a16.3,16.3,0,0,0-3.586-.363,4.856,4.856,0,0,0-4.661,5.065,4.647,4.647,0,0,0,4.786,4.786c.6,0,.963-.14,1.116-.74s.5-.726.251-1.186h-1.4a2.5,2.5,0,0,1-2.5-1.982,3.447,3.447,0,0,1,.251-2.582,2.456,2.456,0,0,1,2.247-1.4,3.363,3.363,0,0,1,1.577.167c.321.14.167.419.167.628v6.684a2.372,2.372,0,0,1-2.009,2.693c-.335.1-.684.167-1.019.251s-.377.167-.293.46c.363,1.4.684,1.647,2.093,1.2a6.085,6.085,0,0,0,.837-.321,3.907,3.907,0,0,0,2.428-3.168,7.38,7.38,0,0,0,0-1.116V43.522a.363.363,0,0,0-.293-.419Z" transform="translate(53.481 16.903)" fill="#ebeffa"/><path d="M51.643,45.512a7.089,7.089,0,0,1,.656-.8,2.414,2.414,0,0,1,.781-.391c.809-.209.949-.1.949.712a2.455,2.455,0,0,1,0,.321,1.953,1.953,0,0,1,0,.865c-.167.293-.544.07-.823.126a1.4,1.4,0,0,0-1.3,1.479v2.791c0,1.284.167,1.074-1.116,1.088s-1.13,0-1.13-1.158V44.968c0-.419.1-.586.53-.544a4.758,4.758,0,0,1,1.186,0C51.7,44.591,51.308,45.191,51.643,45.512Z" transform="translate(19.585 17.495)" fill="#ebeffa"/><path d="M238.025,24.419c0,1.4,0,1.4-1.4,1.4-1.228,0-1.27,0-1.27-1.256V23.6a.628.628,0,0,1,.656-.656h1.2c.642,0,.8.181.837.809C238.039,24.029,238.025,24.252,238.025,24.419Z" transform="translate(93.018 9.074)" fill="#ebeffa"/><path d="M144.551,24.477c0,1.4,0,1.4-1.4,1.4s-1.326,0-1.326-1.4,0-1.507,1.507-1.507h.321c.7,0,.851.167.879.837A5.531,5.531,0,0,1,144.551,24.477Z" transform="translate(56.033 9.086)" fill="#ebeffa"/><path d="M119.587,24.475c0,1.4,0,1.4-1.4,1.4s-1.312,0-1.312-1.3V23.61a.6.6,0,0,1,.628-.6h1.27a.732.732,0,0,1,.8.781A5.476,5.476,0,0,1,119.587,24.475Z" transform="translate(46.167 9.102)" fill="#ebeffa"/><path d="M115.441,41.226c0-1.1-.112-1.116,1.158-1.116s1.074.112,1.074,1.1c0,1.4.154,1.27-1.3,1.27h-.321c-.544,0-.586-.07-.614-.614Z" transform="translate(45.597 15.864)" fill="#ebeffa"/><path d="M175.786,41.356c0,1.312,0,1.172-1.172,1.172s-1.074,0-1.061-1.033c0-1.4-.223-1.4,1.326-1.4h.237c.586,0,.656.084.67.642C175.8,40.937,175.786,41.133,175.786,41.356Z" transform="translate(68.573 15.86)" fill="#ebeffa"/><path d="M150.812,41.345c0,1.4,0,1.2-1.214,1.2h-.447c-.363,0-.544-.14-.53-.516s0-.907,0-1.4a.433.433,0,0,1,.488-.488h.558C150.938,40.089,150.826,40.117,150.812,41.345Z" transform="translate(58.717 15.871)" fill="#ebeffa"/><path d="M122.976,41.241c0,1.4,0,1.242-1.186,1.242s-1.061,0-1.047-1.116-.223-1.27,1.172-1.256C122.976,40.124,122.976,40.11,122.976,41.241Z" transform="translate(47.691 15.864)" fill="#ebeffa"/><path d="M153.4,41.36c0,1.27.084,1.158-1.172,1.158s-1.061,0-1.061-1.033c0-1.4-.14-1.4,1.4-1.4h.321c.391,0,.6.154.572.572A2.324,2.324,0,0,0,153.4,41.36Z" transform="translate(59.72 15.856)" fill="#ebeffa"/><path d="M178.355,41.356c0,1.27.1,1.172-1.158,1.172s-1.074,0-1.074-1.033c0-1.4-.14-1.4,1.4-1.4h.321c.391,0,.6.14.572.572A2.2,2.2,0,0,0,178.355,41.356Z" transform="translate(69.59 15.86)" fill="#ebeffa"/><path d="M112.89,41.337c0-1.158-.2-1.2,1.172-1.186,1.061,0,1.061,0,1.061,1.047,0,1.535.084,1.312-1.4,1.4h-.321c-.4,0-.614-.126-.586-.544S112.89,41.49,112.89,41.337Z" transform="translate(44.561 15.879)" fill="#ebeffa"/><path d="M125.544,41.36c0,1.256.1,1.158-1.172,1.158-1.061,0-1.061,0-1.061-1.033,0-1.4-.154-1.4,1.4-1.4h.321c.391,0,.6.154.572.572A2.324,2.324,0,0,0,125.544,41.36Z" transform="translate(48.709 15.856)" fill="#ebeffa"/><path d="M216.849,52.184c0,1.4.14,1.172-1.228,1.172-.991,0-.991,0-.991-1,0-1.521,0-1.284,1.27-1.312h.167c.767,0,.767,0,.781.74Z" transform="translate(84.821 20.186)" fill="#ebeffa"/><path d="M233.488,41.34c0,1.3.084,1.158-1.172,1.158h-.4c-.544,0-.6-.07-.628-.586s0-.865,0-1.3.126-.474.419-.474h1.4c.307,0,.419.2.419.474Z" transform="translate(91.401 15.876)" fill="#ebeffa"/><path d="M100.751,52.213c0-1.27-.126-1.172,1.158-1.172s1.074,0,1.074,1.116.112,1.2-1.214,1.214h-.237c-.767,0-.767,0-.781-.754Z" transform="translate(39.788 20.185)" fill="#ebeffa"/><path d="M107.044,52.2c0,1.256.126,1.172-1.172,1.172-1.061,0-1.074,0-1.061-1.033,0-1.4-.167-1.284,1.284-1.3h.251c.656,0,.67,0,.7.67Z" transform="translate(41.393 20.186)" fill="#ebeffa"/><path d="M109.628,52.24c0,1.228.14,1.13-1.116,1.116s-1.1.181-1.088-1.074,0-1.228,1.256-1.242c.977,0,.963,0,.949.963Z" transform="translate(42.423 20.186)" fill="#ebeffa"/><path d="M214.284,52.2c0,1.256.14,1.172-1.172,1.172-1.061,0-1.061,0-1.061-1.033,0-1.4-.167-1.284,1.3-1.3h.237c.67,0,.684,0,.7.67Z" transform="translate(83.799 20.186)" fill="#ebeffa"/><path d="M100.371,52.225c0,1.3.084,1.144-1.172,1.144h-.558c-.349,0-.474-.167-.46-.488s0-.907,0-1.4.154-.488.488-.474h1.2c.391,0,.53.181.5.544Z" transform="translate(38.772 20.173)" fill="#ebeffa"/><path d="M167.295,52.212c0,1.312,0,1.144-1.172,1.144H165.8c-.7,0-.7,0-.712-.726V51.515c0-.377.154-.488.488-.474h.558C167.351,51.054,167.309,50.887,167.295,52.212Z" transform="translate(65.231 20.185)" fill="#ebeffa"/><path d="M24.84,34a.628.628,0,0,1,.251-.488,2.247,2.247,0,0,1-.084,1.284C24.868,34.543,25.063,34.194,24.84,34Z" transform="translate(9.772 13.254)" fill="#ebeffa"/><path d="M12.334,9.167A.307.307,0,0,1,12.6,8.93h0s-.14.209-.279.209Z" transform="translate(4.821 3.534)" fill="#ebeffa"/><path d="M12.378,9.128l-.1.07.07-.1Z" transform="translate(4.805 3.601)" fill="#ebeffa"/><path d="M143.935,39h-.154a.433.433,0,0,0-.474.516V51.769c0,.251,0,.4-.349.4h-3.14a2.889,2.889,0,0,1-1.772-.684.656.656,0,0,1-.321-.6c.223-1.884,0-3.768.1-5.582v-.237c0-.53-.07-.586-.614-.614h-.251c-1.4,0-1.228,0-1.228,1.2v4.354a2.135,2.135,0,0,1-1.968,2.247h-2.791a2.247,2.247,0,0,1-1.479-.586.67.67,0,0,1-.237-.712,34.734,34.734,0,0,0,.209-5.777c0-.251,0-.419-.349-.46a12.936,12.936,0,0,0-4.075-.321,4.772,4.772,0,0,0-3.419,7.563c0,.084.14.167,0,.293h-3.209a3.307,3.307,0,0,1-2.023-.656c-.209-.167-.447-.335-.391-.656a33.576,33.576,0,0,0,.112-4.1V45.071c0-.586,0-.586-.6-.614h-.251c-1.4,0-1.228,0-1.228,1.2v4.354a2.093,2.093,0,0,1-1.968,2.233,29.456,29.456,0,0,1-3.14,0,2.958,2.958,0,0,1-1.856-.684.781.781,0,0,1-.293-.7c.14-1.688,0-3.391,0-5.079v-.809c0-.321-.126-.5-.474-.5a3.655,3.655,0,0,1-.391,0c-1.284,0-1.214-.112-1.214,1.228v4.437a2.079,2.079,0,0,1-2.219,2.149h-1.926a3.7,3.7,0,0,1-1.284-.167c-.893-.307-1.074-.614-.851-1.507a4.856,4.856,0,0,0-3.8-6.154,12.559,12.559,0,0,0-4.549.251c-.2,0-.251.167-.265.349v6.852c0,.279,0,.558-.321.726a3.056,3.056,0,0,0-1.772,2.93c0,.586,0,1.172,0,1.772,0,1.479-.237,1.4,1.4,1.4.614,0,.67,0,.684-.712s0-1.507,0-2.261a1.507,1.507,0,0,1,1.633-1.521h2.261a4.591,4.591,0,0,0,3.335-1.284c.265-.237.419-.2.656,0A3.712,3.712,0,0,0,100.147,54h2.247a4.186,4.186,0,0,0,3.642-1.4,3.921,3.921,0,0,0,2.791,1.4h3.865a2.889,2.889,0,0,0,1.577-.558c.349-.237.67-.53,1.019-.809a4.382,4.382,0,0,0,3.391,1.4h6.21A7.522,7.522,0,0,0,126,53.946a4.6,4.6,0,0,0,2.316-1.214,3.991,3.991,0,0,0,3.293,1.284h1.214a15.352,15.352,0,0,0,1.6,0,4.1,4.1,0,0,0,2.442-1.4,4.186,4.186,0,0,0,2.791,1.4h4.912c.7,0,.712,0,.726-.74V40.4C145.4,38.861,145.68,39,143.935,39ZM96.114,50.974a2.5,2.5,0,0,1-2.037,1.116h-1.6c-.53,0-.447-.153-.447-.474V46.69c0-.377.126-.544.5-.544a5.945,5.945,0,0,1,2.163.126,2.651,2.651,0,0,1,1.284.921A3.7,3.7,0,0,1,96.114,50.974Zm31.327-2.693a11.162,11.162,0,0,1,0,1.633,2.554,2.554,0,0,1-1.87,2.191,2.609,2.609,0,0,1-2.33-1.591,3.154,3.154,0,0,1,1.688-4.186,4.828,4.828,0,0,1,2.233,0c.279,0,.335.2.335.447Z" transform="translate(34.629 15.424)" fill="#ebeffa"/><path d="M53.82,31.577A4.41,4.41,0,0,0,49.8,27a13.647,13.647,0,0,0-6.447.4A3.823,3.823,0,0,0,40.647,30.2a9.279,9.279,0,0,0-.307,2.554v13.2c.084.684.307.907.977.921h3.391c.684,0,.907-.251.921-.949s0-1.772,0-2.651c0-.558-.251-1.27.126-1.619s1.033-.084,1.563-.084c1.228,0,1.214,0,1.228,1.214s0,2.093,0,3.14c0,.628.223.921.781.935h3.782a.712.712,0,0,0,.712-.74V36.489C53.82,34.856,53.9,33.21,53.82,31.577ZM48.1,37.312H46.09c-.363,0-.447-.14-.447-.474V32.414c0-1.144.14-1.242,1.3-1.4a4.939,4.939,0,0,1,.642,0c.614,0,.893.251.921.879v2.651h0V36.8c.084.349.014.544-.4.516Z" transform="translate(15.9 10.596)" fill="#ebeffa"/><path d="M204.725,39.029a.421.421,0,0,0-.461.447c-.014.293,0,.433,0,.642V51.839a.353.353,0,0,1-.377.391H201.1a2,2,0,0,1-1.312-.53.823.823,0,0,1-.349-.907,5.081,5.081,0,0,0,0-1.13q0-4.584,0-9.2c0-1.465-.126-1.577-1.6-1.4h-.084a.391.391,0,0,0-.391.419v9.922a6.165,6.165,0,0,1,0,.879,1.981,1.981,0,0,1-1.326,1.772,4.186,4.186,0,0,1-2.916-.084c-.7-.293-.8-.544-.614-1.3a4.912,4.912,0,0,0-4.884-6.363,14.638,14.638,0,0,0-3.112.321c-.572.112-.586.112-.586.712v5.163c0,.558.251,1.284-.14,1.619s-1.074.1-1.633.1a4.633,4.633,0,0,1-2.121-.391c-.7-.349-.809-.572-.74-1.4a7.894,7.894,0,0,0,0-.809q0-2.135,0-4.27c0-.977,0-.977-.977-.977h0c-1.033,0-1.033,0-1.033.991V49.9a2.149,2.149,0,0,1-2.33,2.3h-2.009c-1.563,0-1.8-.279-1.814-1.856V40.216c0-1.312.112-1.242-1.284-1.242-.8,0-.809,0-.809.809V51.156a2.875,2.875,0,0,0,3,2.916h3.461a3.768,3.768,0,0,0,2.5-.977c.167-.14.279-.335.516-.4a4.186,4.186,0,0,0,3.223,1.4h6.377a5.136,5.136,0,0,0,.8-.084,4.716,4.716,0,0,0,2.47-1.228,5.372,5.372,0,0,0,7.214,0c.237.07.363.293.544.433a3.363,3.363,0,0,0,1.981.809h4.758c.349,0,.474-.167.474-.488v-13.1C206.344,38.89,206.19,38.778,204.725,39.029ZM190.394,50.542a2.372,2.372,0,0,1-2.275,1.633h-1.6c-.53,0-.447-.154-.447-.474V46.774c0-.377.14-.544.5-.558a6.977,6.977,0,0,1,2.009.1,2.6,2.6,0,0,1,1.842,1.758,3.754,3.754,0,0,1-.028,2.414Z" transform="translate(66.789 15.395)" fill="#ebeffa"/><path d="M229.336,44.241a13.787,13.787,0,0,0-3.126.265c-.893.167-.893.167-.893,1.1v5.4c0,1.116,0,1.13-1.158,1.144h-1.2a3.782,3.782,0,0,1-1.688-.461c-.474-.279-.837-.586-.614-1.228a2.5,2.5,0,0,0,0-.8V45.385c0-1.047,0-1.033-1.074-1.047s-1.019.1-1.019,1v4.521a2.093,2.093,0,0,1-1.94,2.261H212.1c-.279,0-.377-.126-.363-.391s0-.377,0-.558V40.012c0-1.1,0-1.1-1.116-1.1s-.963,0-.963.977V54.469a3.866,3.866,0,0,0,0,.572c0,.349-.14.461-.474.461H206.4a2.316,2.316,0,0,1-2.386-2.512c0-.893,0-1.786,0-2.665,0-1.647.279-1.4-1.549-1.4-.391,0-.53.167-.53.53V53.9a3.572,3.572,0,0,0,2.177,3.14,4.661,4.661,0,0,0,2.023.46h4.926c.628,0,.656,0,.67-.712s0-1.242,0-1.856c0-.949-.084-.823.8-.837h3.544a4.256,4.256,0,0,0,3.67-1.4,4.186,4.186,0,0,0,3.293,1.4h9.182a.67.67,0,0,0,.712-.488,11.47,11.47,0,0,0,1.033-4.186,4.731,4.731,0,0,0-4.619-5.177Zm2.163,7.466a.544.544,0,0,1-.642.447h-2.972c-.4,0-.488-.167-.488-.516V46.892c0-.781,0-.656.684-.7a8.638,8.638,0,0,1,1.2,0,2.54,2.54,0,0,1,2.526,2.358,7.4,7.4,0,0,1-.307,3.154Z" transform="translate(79.799 15.389)" fill="#ebeffa"/><path d="M174.522,43.748c0-.726,0-.74-.781-.754h-.893a.363.363,0,0,0-.4.391v6.768c0,.377,0,.6-.516.586h-4.1a8.372,8.372,0,0,1-1.1-.126l.628-.656a6.266,6.266,0,0,0,1.4-2.135,3.307,3.307,0,0,0-.67-3.586,4.884,4.884,0,0,0-2.428-1.507,7.856,7.856,0,0,0-5.345.53c-1.4.6-1.4.614-1.814,2.135a1.256,1.256,0,0,0,.181,1.13,31.773,31.773,0,0,0,2.526,3.53c.126.167.335.279.335.558a29.22,29.22,0,0,1-4.814.14c-.684,0-.991-.363-1.088-1.061a7.574,7.574,0,0,1,0-.8V43.818c0-.377-.07-.586-.516-.642a19.913,19.913,0,0,0-3.279-.307A4.87,4.87,0,0,0,147,48.1a4.744,4.744,0,0,0,5.414,4.563c.14,0,.307,0,.363-.112.223-.586.74-1.074.586-1.786h-1.4a2.623,2.623,0,0,1-2.791-2.637,2.916,2.916,0,0,1,2.009-3.279,4.717,4.717,0,0,1,1.926,0,.474.474,0,0,1,.447.544v2.791a20.416,20.416,0,0,0,.084,2.33,3.056,3.056,0,0,0,3.447,2.135h.963a24.448,24.448,0,0,0,5.582-.544,2.679,2.679,0,0,1,1.4,0,13.214,13.214,0,0,0,2.219.4c2.163.237,4.326.112,6.5.14.74,0,.768,0,.768-.767V45.757C174.522,45.1,174.536,44.432,174.522,43.748ZM164.21,50.181c-.223.14-.349,0-.474-.167a11.471,11.471,0,0,1-1.4-1.493,23.474,23.474,0,0,1-1.73-2.526c-.14-.223-.237-.4.084-.572a7.3,7.3,0,0,1,3.1-.851,5.177,5.177,0,0,1,1.926.447,1.884,1.884,0,0,1,1.074,2.47,5.275,5.275,0,0,1-2.582,2.693Z" transform="translate(58.074 16.803)" fill="#ebeffa"/><path d="M181.029,38.034c-.5-.558-1.033-1.088-1.549-1.633s-.544-.419-.084-1.033l.614-.851c.809-1.13.809-1.172-.265-2.051-.6-.5-.809-.488-1.3.153s-.726.963-1.13,1.507l-2.93-3.07c.167-.265.433-.307.628-.419a3.823,3.823,0,0,0,2.023-2.665,6.628,6.628,0,0,0,0-2.568,3.028,3.028,0,0,0-2.442-2.484,6.754,6.754,0,0,0-3.126,0,2.889,2.889,0,0,0-2.261,1.856,5.093,5.093,0,0,0,.586,4.9c.154.209.391.363.419.684-.209.126-.433.223-.628.349a4.354,4.354,0,0,0-2.163,3.558,13.424,13.424,0,0,0,0,2.247,3.433,3.433,0,0,0,2.651,3.251,9.112,9.112,0,0,0,2.944.279,5.233,5.233,0,0,0,4.312-1.954.3.3,0,0,0,.2-.1c.321.335.642.684.977,1.019,1.088,1.158,1.088,1.158,2.372.307C181.489,38.844,181.531,38.565,181.029,38.034Zm-9.573-12.043a1.172,1.172,0,0,1,.391-.684,2.582,2.582,0,0,1,2.386,0,1.033,1.033,0,0,1,.4.67,3.135,3.135,0,0,0,.084.879,2.121,2.121,0,0,1-1.675,2.344.488.488,0,0,1-.586-.084,3.126,3.126,0,0,1-1-3.126Zm4.186,10.48a2.791,2.791,0,0,1-1.4.991,6.363,6.363,0,0,1-2.944.112,1.479,1.479,0,0,1-1.27-1.27,4.393,4.393,0,0,1,0-1.047v-.712a2.512,2.512,0,0,1,1.814-2.316.419.419,0,0,1,.544.126c1.1,1.172,2.2,2.344,3.321,3.5a.391.391,0,0,1-.112.614Z" transform="translate(66.135 8.995)" fill="#ebeffa"/><path d="M164.835,38.554A2.958,2.958,0,0,0,162.393,36a13.871,13.871,0,0,0-3.042-.279,4.563,4.563,0,0,1-1.4-.126.646.646,0,0,1,.014-1.214A3.223,3.223,0,0,1,159,34.256a10.368,10.368,0,0,0,2.079-.167,3.377,3.377,0,0,0,2.972-3.209,8.26,8.26,0,0,0,0-1.856,2.875,2.875,0,0,0-2.2-2.665,8.08,8.08,0,0,0-4.675,0,2.693,2.693,0,0,0-1.856,1.451,5.679,5.679,0,0,0,0,4.382,5.483,5.483,0,0,0,.6.921,2.442,2.442,0,0,0-.167,3.461,3.154,3.154,0,0,0-1.4,1.814,5.093,5.093,0,0,0-.126,1.842,3.21,3.21,0,0,0,2.889,3.321,15.5,15.5,0,0,0,3.684.167,6.1,6.1,0,0,0,1.884-.363,2.986,2.986,0,0,0,2.107-2.233,6.015,6.015,0,0,0,.042-2.568Zm-7.424-9.2a1.256,1.256,0,0,1,1.061-1.061,4.549,4.549,0,0,1,1.842,0,1.284,1.284,0,0,1,1.242,1.4v.4h0v.726a1.4,1.4,0,0,1-1.033,1.186,3.991,3.991,0,0,1-2.065,0,1.214,1.214,0,0,1-.977-.963,3.767,3.767,0,0,1-.07-1.758Zm5,11a1.228,1.228,0,0,1-.991,1.13,8.666,8.666,0,0,1-3.656,0,1.27,1.27,0,0,1-1.061-1.4h0c-.1-1.591.265-1.982,1.842-2.191a9.252,9.252,0,0,1,2.484,0c1.047.154,1.4.516,1.4,1.577a7.594,7.594,0,0,1-.014.809Z" transform="translate(60.923 10.289)" fill="#ebeffa"/><path d="M254.991,42.738a15.349,15.349,0,0,0-2.875.321c-.586.112-.6.112-.6.684v6.614a.265.265,0,0,1-.293.293,17.668,17.668,0,0,1-1.926,0,1.772,1.772,0,0,1-1.591-1.8V43.561c0-.6,0-.628-.642-.642h-.879c-.377,0-.558.14-.558.516v8.61a8.523,8.523,0,0,1,0,1.2,1.884,1.884,0,0,1-1.3,1.6,8.5,8.5,0,0,1-.851.237c-.321.084-.433.265-.279.586s.321.74.488,1.1a.335.335,0,0,0,.419.265,4.27,4.27,0,0,0,3.447-2.916A10.6,10.6,0,0,0,247.818,52a3.977,3.977,0,0,0,1.842.572h8.791a.74.74,0,0,0,.837-.53,14.416,14.416,0,0,0,.977-3.489,4.856,4.856,0,0,0-5.275-5.819Zm2.651,7.605c-.084.265-.251.307-.488.307h-3.14c-.307,0-.419-.112-.419-.419V45.152c0-.307.154-.419.433-.447a7.4,7.4,0,0,1,1.842,0,2.442,2.442,0,0,1,2.079,1.982A6.628,6.628,0,0,1,257.642,50.343Z" transform="translate(96.091 16.892)" fill="#ebeffa"/><path d="M136.278,28.978a3.084,3.084,0,0,0-2.386-2.721,8.024,8.024,0,0,0-3.5-.14,3.4,3.4,0,0,0-3.168,3.614V32.4h0v2.889a3.2,3.2,0,0,0,2.721,3.279,7.968,7.968,0,0,0,2.875.112c2.54-.377,3.544-1.549,3.558-4.117V30.192a8.525,8.525,0,0,0-.1-1.214Zm-2.442,5.582a1.591,1.591,0,0,1-1.577,1.772,3.978,3.978,0,0,1-.4,0c-1.549,0-2.121-.447-2.149-2s0-2.791,0-4.27v-.558A1.4,1.4,0,0,1,130.92,28.2a4.3,4.3,0,0,1,1.688,0,1.4,1.4,0,0,1,1.172,1.4v2.582h0a18.509,18.509,0,0,1,.112,2.428Z" transform="translate(50.254 10.279)" fill="#ebeffa"/><path d="M108.45,32.388V29.6a2.787,2.787,0,0,0,0-.321,3.1,3.1,0,0,0-2.4-2.972,7.4,7.4,0,0,0-4.368,0,3.126,3.126,0,0,0-2.288,2.721,25.117,25.117,0,0,0-.084,3.544,21.46,21.46,0,0,0,.056,3.209,3.1,3.1,0,0,0,2.316,2.623,7.466,7.466,0,0,0,4.186,0,3.223,3.223,0,0,0,2.609-3.321C108.478,34.216,108.45,33.309,108.45,32.388Zm-4.842,4.019c-1.312,0-1.772-.53-1.8-1.842V32.22h0V29.959a1.521,1.521,0,0,1,1.675-1.716,6.112,6.112,0,0,1,1.13,0,1.284,1.284,0,0,1,1.256,1.242,3.754,3.754,0,0,1,.084.8v3.963C105.966,35.778,105.422,36.462,103.608,36.406Z" transform="translate(39.206 10.274)" fill="#ebeffa"/><path d="M248.725,32.353V29.3a3.042,3.042,0,0,0-2.428-3.028,7.521,7.521,0,0,0-4.047,0,3.21,3.21,0,0,0-2.6,3,34.786,34.786,0,0,0-.07,3.614,21.07,21.07,0,0,0,.084,2.791,3.126,3.126,0,0,0,2.358,2.791,7.968,7.968,0,0,0,3.726.1,3.363,3.363,0,0,0,3.056-3.544c0-.893,0-1.772,0-2.665Zm-4.758,4.061a2.791,2.791,0,0,1-.474,0,1.4,1.4,0,0,1-1.4-1.493V30.008c0-1.158.53-1.661,1.688-1.716a5.749,5.749,0,0,1,1.2,0,1.27,1.27,0,0,1,1.172,1.144,6.257,6.257,0,0,1,.084.879v3.949C246.241,35.869,245.6,36.483,243.967,36.413Z" transform="translate(94.682 10.281)" fill="#ebeffa"/><path d="M229.412,33.275V29.9a4.783,4.783,0,0,0,0-.642,3.168,3.168,0,0,0-2.609-3.07,9.307,9.307,0,0,0-4.382.14.767.767,0,0,0-.642.726,4.884,4.884,0,0,1-.1.628c0,.8.154.991.921.851a2.789,2.789,0,0,1,.321-.084,9.768,9.768,0,0,1,2.637-.209,1.4,1.4,0,0,1,1.4,1.4v.474c0,.153-.1.5-.447.488a11.163,11.163,0,0,0-1.4,0,7.745,7.745,0,0,0-2.958.67,2.791,2.791,0,0,0-1.549,1.94,6.308,6.308,0,0,0,0,2.554,2.917,2.917,0,0,0,2.54,2.8,10.452,10.452,0,0,0,5.4-.391c.754-.251.865-.419.879-1.228V33.316Zm-2.889,3.07a7.271,7.271,0,0,1-2.33.084c-.8-.1-1.1-.46-1.2-1.256a2.1,2.1,0,0,1,0-.4c0-1.284.307-1.647,1.577-1.884a16.229,16.229,0,0,1,2.009-.154c.321,0,.419.126.4.433s0,.907,0,1.4v1.284a.433.433,0,0,1-.46.5Z" transform="translate(87.133 10.28)" fill="#ebeffa"/><path d="M207.589,29.619a3.237,3.237,0,0,0-2.54-3.391,8.931,8.931,0,0,0-4.535.112.809.809,0,0,0-.642.823v.558c0,.8.167.963.949.8a11.289,11.289,0,0,1,2.554-.293c1.284,0,1.744.46,1.814,1.744,0,.6,0,.642-.586.67h-1.13a8.512,8.512,0,0,0-2.791.558,2.791,2.791,0,0,0-1.884,2.651,12.566,12.566,0,0,0,0,1.619,2.958,2.958,0,0,0,2.5,3.1,10.424,10.424,0,0,0,5.47-.4c.726-.251.837-.419.837-1.172V33.359h0C207.589,32.075,207.63,30.847,207.589,29.619Zm-2.442,5.917c0,.74,0,.754-.712.865a6.475,6.475,0,0,1-2.009,0,1.27,1.27,0,0,1-1.27-1.4c-.1-1.549.209-1.926,1.772-2.191a11.665,11.665,0,0,1,1.842-.112c.265,0,.391.1.377.377s0,.963,0,1.4Z" transform="translate(78.55 10.28)" fill="#ebeffa"/><path d="M34.6,45.823a2.707,2.707,0,0,0-1.828-1.4A3.6,3.6,0,0,0,28.212,47.8a3.5,3.5,0,0,0,3.572,4.033,7.368,7.368,0,0,0,1.842-.154c1.088-.237,1.061-.223.865-1.312-.084-.46-.279-.516-.656-.4a5.065,5.065,0,0,1-2,.112,1.647,1.647,0,0,1-1.3-.726c-.237-.377-.167-.516.279-.53s1.242,0,1.856,0h1.856c.391,0,.516-.167.544-.516A4.507,4.507,0,0,0,34.6,45.823Zm-2.093,1.4H30.988c-.656,0-.74-.167-.419-.74a1.27,1.27,0,0,1,1.3-.726,1.186,1.186,0,0,1,1.033.879c.14.488.084.586-.391.6Z" transform="translate(11.089 17.519)" fill="#ebeffa"/><path d="M50.568,47.482a3.182,3.182,0,0,0-1.744-2.889,3.377,3.377,0,0,0-3.586.335,3.837,3.837,0,0,0-1.479,3.782,3.182,3.182,0,0,0,2.5,2.916,6.182,6.182,0,0,0,2.944,0c1.019-.223.991-.251.8-1.3-.084-.447-.265-.516-.656-.4a4.758,4.758,0,0,1-2.079.1,1.535,1.535,0,0,1-1.4-1.242h3.516C50.652,48.78,50.694,48.752,50.568,47.482Zm-2.484-.223h-.879a6.291,6.291,0,0,0-.726,0c-.684.07-.712-.181-.419-.754a1.312,1.312,0,0,1,1.312-.74,1.27,1.27,0,0,1,1.061.977C48.531,47.133,48.461,47.245,48.084,47.259Z" transform="translate(17.227 17.492)" fill="#ebeffa"/></g></g></svg>